<?xml version="1.0" encoding="utf-8"?>
<!-- Generator: Adobe Illustrator 27.0.1, SVG Export Plug-In . SVG Version: 6.00 Build 0)  -->
<svg version="1.1" id="Layer_1" xmlns="http://www.w3.org/2000/svg" xmlns:xlink="http://www.w3.org/1999/xlink" x="0px" y="0px"
	 viewBox="0 0 1627.97 413.66" style="enable-background:new 0 0 1627.97 413.66;" xml:space="preserve">
<style type="text/css">
	.st0{display:none;fill:#212322;}
	.st1{fill-rule:evenodd;clip-rule:evenodd;fill:#D5D1C5;}
	.st2{fill-rule:evenodd;clip-rule:evenodd;fill:#212322;}
	.st3{fill-rule:evenodd;clip-rule:evenodd;fill:#998543;}
	.st4{fill:#998543;}
	.st5{fill:#D6D1C4;}
</style>
<rect x="-186.32" y="-793" class="st0" width="2000" height="2000"/>
<path class="st1" d="M635.16,102.98C672.27,39.13,740.33,0,813.98,0c73.65,0,141.71,39.13,178.82,102.98
	c11.04,3.7,17.19,11.51,20.3,11.26c3.54-0.34,10.11-5.48,17.82-12.66c10.72-9.98,19.76-20.92,29.6-31.66
	c18.44-20.94,34.48-39.13,52.14-41.7c12.71-1.85,28.58,1.97,46.61,8.91c23.86,9.19,47.64,21.24,70.68,32.55
	c43.51,21.34,70.97,34.81,122.63,28.7l42.48-5.02c-11.01,20.75-26.56,37.22-41.32,50.26c16.48,3.68,32.86,6.44,49.12,8.09
	c38.79,3.95,61.04,2.7,95.9-7.15c-14.08,25.66-29.21,46.14-57.09,62.96c25.3,11.99,52.45,24.72,79.8,31.02
	c44.91,10.35,72.12,4.84,106.5-15.85c-7.79,42.78-21.39,64.23-71.57,85.91c-24.1,10.41-52.1,16.47-79.96,19.05
	c13.45,3.66,27.57,5.75,42.13,6.82c-29.78,26.76-66.41,42.94-120.63,41.72c-23.33,8.54-53.17,15.16-80.6,14.35
	c-24.02,6.92-44.8,11.41-70.49,10.24c-16.88,2.45-32.01,3.77-49.24,2.67c-11.73-0.75-21.61-2.5-32.91-5.6l6.58,5.82
	c-5.85-0.94-21.44-4.45-28.4-6.45l2.63,5.69l-38.57-12.43c-3.98-1.28-10.2-3.81-17.05-6.86l1.2,3.96
	c-19.36-8.35-53.03-21.09-70.43-32.45c-14.77-7.17-28.54-13.54-40.89-24.69c-39.68,52.51-99.96,83.22-165.79,83.22
	c-65.83,0-126.11-30.71-165.79-83.22c-12.35,11.15-26.12,17.51-40.89,24.69c-17.4,11.37-51.07,24.1-70.43,32.45l1.2-3.96
	c-6.85,3.05-13.07,5.58-17.05,6.86l-38.57,12.43l2.63-5.69c-6.96,2-22.55,5.51-28.4,6.45l6.58-5.82
	c-11.29,3.09-21.18,4.85-32.91,5.6c-17.23,1.1-32.36-0.22-49.24-2.67c-25.69,1.17-46.47-3.32-70.49-10.24
	c-27.43,0.82-57.28-5.81-80.61-14.35c-54.22,1.22-90.84-14.96-120.63-41.72c14.56-1.07,28.68-3.15,42.13-6.82
	c-27.86-2.58-55.86-8.64-79.96-19.05C21.38,286.92,7.78,265.47,0,222.69c34.38,20.69,61.59,26.2,106.49,15.85
	c27.36-6.3,54.51-19.04,79.81-31.02c-27.89-16.81-43.02-37.3-57.09-62.96c34.86,9.85,57.11,11.1,95.9,7.15
	c16.26-1.65,32.64-4.42,49.12-8.09c-14.76-13.03-30.31-29.51-41.32-50.26l42.48,5.02c51.65,6.11,79.11-7.36,122.63-28.7
	c23.04-11.3,46.82-23.36,70.68-32.55c18.03-6.94,33.9-10.76,46.61-8.91c17.66,2.57,33.7,20.76,52.14,41.7
	c9.84,10.74,18.87,21.68,29.6,31.66c7.71,7.17,14.28,12.32,17.82,12.66C617.97,114.49,624.12,106.68,635.16,102.98z"/>
<g>
	<path class="st2" d="M1468.08,310.48c52.62-3.8,106.67-20.4,130.62-56.44c-58.13,16.57-104.13-1.75-163.8-30.02
		c-12.31-5.84-24.62-11.67-37.38-16.95c28.27-8.28,44.45-18.93,61.73-36.69c-38.35,2.88-77.71-1.75-117.7-11.35
		c-12.56-3.02-24.16-6.41-34.97-9.91c23.01-7.35,32.97-13.9,47.99-33.05c-63.54,7.51-92.67-11.41-149.97-38.96
		c-37.38-17.97-70.7-33.99-89.49-31.26c-11.12,1.62-25.15,17.54-41.29,35.86c-19.66,22.32-42.88,48.67-59.08,50.21
		c-2.11,0.2-8.37-2.93-14.8-6.15c-6.48-3.24-13.08-6.55-19.19-7.92c-8.82-16.5-20.01-31.54-33.13-44.66
		c-34.2-34.2-81.45-55.36-133.64-55.36c-52.19,0-99.44,21.15-133.64,55.36c-13.12,13.12-24.31,28.16-33.13,44.66
		c-6.11,1.37-12.71,4.68-19.19,7.92c-6.43,3.21-12.68,6.35-14.8,6.15c-16.2-1.54-39.42-27.89-59.08-50.21
		c-16.14-18.32-30.17-34.24-41.29-35.86c-18.79-2.73-52.1,13.28-89.48,31.26c-57.31,27.55-86.43,46.47-149.97,38.96
		c15.02,19.14,24.98,25.7,47.99,33.05c-10.81,3.51-22.41,6.89-34.97,9.91c-40,9.6-79.36,14.24-117.7,11.35
		c17.28,17.76,33.45,28.41,61.73,36.69c-12.76,5.29-25.07,11.12-37.38,16.95c-59.67,28.27-105.67,46.6-163.8,30.02
		c23.95,36.04,78,52.64,130.62,56.44c26.51,1.91,54.03-0.08,82.53-5.82c-29.54,25.35-52.39,31.75-87.12,38.76
		c50.66,21.64,96.93,19,153.24-1.85c-13.04,12.87-23.47,18.59-39.47,25.78c29.84,8.43,51.44,6.42,85.59-1.18
		c8.92-1.98,17.74-4.42,26.46-7.3c-9.16,9.68-18.67,15.67-29.46,23.36c18.63,1.6,36.51,1.43,55.83-2.65
		c-3.32,1.78-7.02,3.44-12.04,5.3c19.59,2.01,42.87,1.84,62.46-4c3.71-0.98,7.42-2.28,11.13-3.86l-6.3,7.22
		c16.3-2.61,43.88-12.34,55.44-18.33c-0.49,2.61-1.37,5.15-2.52,7.65c10.42-3.36,39.25-16.88,49.02-23.56
		c0.92-0.63,1.83-1.27,2.74-1.93l-2.43,8c16-6.91,28.98-11.69,42.67-23.35c1.57-1.34,3.12-2.73,4.65-4.19l-0.21,4.53
		c17.34-8.42,29.15-18.08,37.9-32.22c8.35,14.54,18.58,27.86,30.35,39.63c34.2,34.2,81.45,55.36,133.64,55.36
		c52.19,0,99.44-21.15,133.64-55.36c11.95-11.95,22.11-25.29,30.35-39.63c8.76,14.14,20.56,23.8,37.9,32.22l-0.22-4.53
		c1.53,1.46,3.08,2.86,4.65,4.19c13.69,11.66,26.66,16.44,42.67,23.35l-2.43-8c0.91,0.66,1.83,1.31,2.74,1.93
		c9.76,6.68,38.6,20.2,49.02,23.56c-1.16-2.5-2.04-5.04-2.52-7.65c11.56,5.99,39.15,15.72,55.44,18.33l-6.3-7.22
		c3.71,1.59,7.42,2.88,11.13,3.86c19.59,5.84,42.87,6.01,62.46,4c-5.02-1.86-8.72-3.52-12.04-5.3c19.32,4.08,37.2,4.25,55.83,2.65
		c-10.79-7.7-20.3-13.69-29.46-23.36c8.72,2.88,17.54,5.31,26.46,7.3c34.15,7.6,55.75,9.61,85.59,1.18
		c-16-7.19-26.43-12.91-39.47-25.78c56.31,20.85,102.58,23.49,153.24,1.85c-34.73-7.01-57.58-13.41-87.12-38.76
		C1414.05,310.4,1441.57,312.39,1468.08,310.48z M951.98,198.04l-37.91-5.97l8.74-4.71l28.1,0.14
		C951.4,190.97,951.76,194.49,951.98,198.04z M948.25,173.65c0.76,3.1,1.42,6.24,1.97,9.41l-19.26-0.1L948.25,173.65z
		 M947.09,169.23l-25.4,13.69l-10.33-0.05l32.51-23.62C945.06,162.51,946.14,165.85,947.09,169.23z M913.54,187.31l-6.7,3.61
		l-5.39-0.85l3.86-2.8L913.54,187.31z M942.2,154.95l-38.35,27.87l-15.37-0.08c-2.02-6.25-4.8-12.16-8.24-17.61l9.21-14.91
		l42.12-16.2C935.67,140.65,939.24,147.64,942.2,154.95z M893.21,232.09l-3.75-3.03l0.33-1.14l6.58,3.84L893.21,232.09z
		 M895.03,239.26l-9.66-0.28c0.25-0.55,0.49-1.11,0.73-1.67l5.77-0.61L895.03,239.26z M890.17,187.19l7.62,0.04l-2.56,1.86
		l-4.77-0.75L890.17,187.19z M896.36,193.76l4.02,0.63l-8.52,4.59c-0.06-0.61-0.13-1.21-0.2-1.81L896.36,193.76z M869.97,268.32
		l-1.73-4.5l0.85-0.82l3.78,6.62L869.97,268.32z M876.58,276.13l4.09,7.16l-6.48-4l-1.96-5.1L876.58,276.13z M870.15,151.73
		l6.61-3.78l-1.29,2.89l-4.5,1.73L870.15,151.73z M878.79,154.32l3.8-1.46l-5.09,8.24c-0.35-0.49-0.71-0.98-1.08-1.46L878.79,154.32
		z M881.34,148.59l1.94-4.36l7.16-4.08l-4,6.48L881.34,148.59z M929.11,130.21L893.28,144l5.21-8.45l24.41-13.93
		C925.08,124.4,927.15,127.27,929.11,130.21z M920.07,118.13l-16.71,9.54l10.3-16.69C915.88,113.29,918.01,115.68,920.07,118.13z
		 M910.44,107.75l-15.13,24.52l-8.98,5.12l16.32-36.67C905.33,102.96,907.93,105.31,910.44,107.75z M852.38,73.95
		c3.09,0.89,6.15,1.89,9.15,2.98l-9.72,16.65L852.38,73.95z M851.53,102.84l14.19-24.28c3.29,1.33,6.51,2.78,9.67,4.34l-24.14,29.86
		L851.53,102.84z M851.03,120.08l28.38-35.1c6.93,3.73,13.51,8.03,19.66,12.84l-19.27,43.29l-13.37,7.63
		c-4.8-4.34-10.15-8.09-15.93-11.14L851.03,120.08z M867.96,275.44l-8.24-5.09c0.49-0.35,0.98-0.71,1.46-1.08l5.32,2.37
		L867.96,275.44z M847.97,72.76l-0.85,28.84l-5.21,8.93l-4.2-39.94C841.18,71.18,844.6,71.91,847.97,72.76z M843.2,122.71l-0.5-4.74
		l4.16-7.12l-0.22,7.61L843.2,122.71z M846.41,125.78l-0.28,9.66c-0.55-0.25-1.11-0.49-1.67-0.73l-0.61-5.77L846.41,125.78z
		 M813.98,68.54c6.51,0,12.91,0.46,19.18,1.33l4.96,47.13l-7.76,13.28c-5.29-1.13-10.77-1.72-16.39-1.72c-1,0-1.99,0.02-2.98,0.06
		l-8.32-15.44l7.03-44.56C811.13,68.57,812.56,68.54,813.98,68.54z M827.06,289.21l-0.63,4.02l-4.59-8.52
		c0.61-0.06,1.21-0.13,1.81-0.2L827.06,289.21z M806.14,128.95c-0.61,0.06-1.21,0.13-1.81,0.2l-3.42-4.71l0.63-4.02L806.14,128.95z
		 M794.65,69.9c3.47-0.49,6.99-0.84,10.54-1.07l-5.97,37.9L794.51,98L794.65,69.9z M794.46,107.28l3.61,6.7l-0.85,5.39l-2.8-3.86
		L794.46,107.28z M794.38,123.02l1.86,2.56l-0.75,4.77l-1.15,0.29L794.38,123.02z M792.9,282.63l-3.84,6.58l-0.33-3.15l3.03-3.75
		L792.9,282.63z M790.21,70.59l-0.1,19.26l-9.32-17.29C783.9,71.8,787.04,71.14,790.21,70.59z M776.38,73.72l13.69,25.41
		l-0.05,10.33l-23.63-32.51C769.67,75.75,773,74.68,776.38,73.72z M762.11,78.62l27.87,38.35l-0.08,15.37
		c-6.25,2.02-12.16,4.8-17.61,8.24l-14.92-9.21l-16.2-42.12C747.8,85.14,754.8,81.58,762.11,78.62z M784.77,290.95l0.5,4.74
		l-4.16,7.12l0.23-7.61L784.77,290.95z M781.55,287.88l0.28-9.66c0.55,0.25,1.11,0.49,1.67,0.73l0.61,5.76L781.55,287.88z
		 M768.25,143.31c-0.49,0.35-0.98,0.71-1.46,1.08l-5.32-2.37l-1.46-3.8L768.25,143.31z M745.37,260.8l5.09-8.24
		c0.35,0.49,0.71,0.98,1.08,1.46l-2.37,5.32L745.37,260.8z M746.62,265.07l-1.94,4.36l-7.16,4.09l4-6.48L746.62,265.07z
		 M752.49,262.81l4.5-1.73l0.82,0.85l-6.61,3.78L752.49,262.81z M755.11,144.05l2.89,1.29l1.73,4.5l-0.85,0.82L755.11,144.05z
		 M751.39,137.53l-4.08-7.16l6.48,4l1.96,5.1L751.39,137.53z M737.37,91.7l13.78,35.83l-8.45-5.21l-13.93-24.41
		C731.55,95.73,734.42,93.67,737.37,91.7z M725.29,100.74l9.54,16.71l-16.68-10.3C720.45,104.94,722.83,102.8,725.29,100.74z
		 M714.9,110.38l24.52,15.13l5.12,8.98l-36.67-16.32C710.12,115.48,712.46,112.88,714.9,110.38z M704.97,121.74l43.29,19.27
		l7.63,13.37c-4.34,4.81-8.09,10.15-11.15,15.93l-17.52-0.52l-35.1-28.38C695.86,134.47,700.16,127.9,704.97,121.74z M732.74,224.57
		l4.77,0.75l0.29,1.15l-7.62-0.04L732.74,224.57z M727.58,219.27l8.52-4.59c0.06,0.61,0.13,1.21,0.2,1.81l-4.7,3.42L727.58,219.27z
		 M731.61,181.9l3.15-0.33l3.75,3.04l-0.32,1.14L731.61,181.9z M736.1,176.96l-3.17-2.56l9.66,0.28c-0.25,0.55-0.49,1.11-0.73,1.67
		L736.1,176.96z M729.86,177.62l-4.74,0.5l-7.12-4.16l7.61,0.22L729.86,177.62z M690.06,145.43l29.86,24.14l-9.92-0.29l-24.28-14.18
		C687.04,151.81,688.49,148.59,690.06,145.43z M684.09,159.28l16.65,9.73l-19.63-0.58C682,165.34,682.99,162.28,684.09,159.28z
		 M679.91,172.84l28.84,0.85l8.93,5.21l-39.94,4.2C678.33,179.64,679.06,176.21,679.91,172.84z M675.7,206.83
		c0-6.51,0.46-12.91,1.33-19.18l47.13-4.96l13.28,7.76c-1.13,5.29-1.72,10.77-1.72,16.39c0,1,0.02,1.99,0.06,2.98l-15.44,8.32
		l-44.56-7.02C675.73,209.68,675.7,208.26,675.7,206.83z M726.53,223.59l-3.86,2.8l-8.24-0.04l6.7-3.61L726.53,223.59z
		 M675.98,215.62l37.91,5.98l-8.74,4.71l-28.1-0.14C676.56,222.69,676.21,219.17,675.98,215.62z M679.72,240.01
		c-0.76-3.1-1.42-6.24-1.97-9.41l19.26,0.1L679.72,240.01z M680.87,244.43l25.41-13.69l10.33,0.05l-32.51,23.62
		C682.91,251.15,681.83,247.81,680.87,244.43z M685.77,258.71l38.35-27.87l15.37,0.08c2.02,6.25,4.8,12.16,8.24,17.61l-9.21,14.91
		l-42.12,16.2C692.3,273.01,688.73,266.02,685.77,258.71z M698.86,283.45l35.83-13.78l-5.21,8.44l-24.41,13.93
		C702.89,289.26,700.82,286.39,698.86,283.45z M707.9,295.53l16.71-9.54l-10.3,16.68C712.09,300.37,709.95,297.98,707.9,295.53z
		 M717.53,305.91l15.13-24.52l8.98-5.12l-16.32,36.67C722.63,310.7,720.04,308.35,717.53,305.91z M775.58,339.71
		c-3.09-0.89-6.15-1.89-9.15-2.98l9.72-16.65L775.58,339.71z M776.43,310.82l-14.18,24.28c-3.29-1.33-6.51-2.78-9.67-4.35
		l24.14-29.86L776.43,310.82z M776.94,293.58l-28.38,35.1c-6.93-3.73-13.51-8.03-19.66-12.84l19.27-43.29l13.37-7.63
		c4.81,4.34,10.15,8.09,15.93,11.15L776.94,293.58z M779.99,340.9l0.85-28.84l5.21-8.92l4.2,39.94
		C786.79,342.48,783.37,341.75,779.99,340.9z M813.98,345.12c-6.51,0-12.91-0.46-19.19-1.33l-4.96-47.13l7.76-13.28
		c5.29,1.13,10.77,1.72,16.39,1.72c1,0,1.99-0.02,2.98-0.06l8.32,15.44l-7.02,44.56C816.84,345.09,815.41,345.12,813.98,345.12z
		 M833.32,343.76c-3.47,0.49-6.99,0.84-10.54,1.07l5.98-37.91l4.71,8.74L833.32,343.76z M833.51,306.38l-3.61-6.7l0.85-5.39
		l2.8,3.86L833.51,306.38z M833.58,290.63l-1.86-2.56l0.75-4.77l1.15-0.29L833.58,290.63z M835.07,131.03l3.84-6.58l0.33,3.15
		l-3.03,3.75L835.07,131.03z M837.75,343.07l0.1-19.26l9.31,17.29C844.07,341.86,840.93,342.52,837.75,343.07z M851.58,339.94
		l-13.69-25.4l0.05-10.33l23.62,32.51C858.3,337.91,854.97,338.98,851.58,339.94z M865.86,335.05l-27.87-38.35l0.08-15.37
		c6.25-2.02,12.16-4.8,17.61-8.24l14.92,9.21l16.2,42.12C880.17,328.52,873.17,332.08,865.86,335.05z M890.6,321.96l-13.78-35.83
		l8.44,5.21l13.93,24.41C896.41,317.93,893.55,319.99,890.6,321.96z M902.68,312.92l-9.54-16.71l16.69,10.3
		C907.52,308.72,905.14,310.86,902.68,312.92z M913.06,303.28l-24.52-15.13l-5.12-8.98l36.67,16.32
		C917.86,298.17,915.52,300.77,913.06,303.28z M923,291.92l-43.3-19.27l-7.63-13.37c4.34-4.8,8.09-10.15,11.14-15.93l17.52,0.51
		l35.11,28.39C932.14,279.13,927.85,285.71,923,291.92z M898.1,236.04l4.74-0.5l7.12,4.16l-7.61-0.22L898.1,236.04z M937.91,268.24
		l-29.86-24.15l9.92,0.29l24.28,14.18C940.93,261.84,939.49,265.07,937.91,268.24z M943.87,254.37l-16.64-9.72l19.62,0.58
		C945.96,248.31,944.97,251.36,943.87,254.37z M948.05,240.82l-28.83-0.85l-8.92-5.21l39.94-4.2
		C949.64,234.01,948.9,237.43,948.05,240.82z M950.93,226.01l-47.13,4.96l-13.28-7.76c1.13-5.29,1.72-10.77,1.72-16.39
		c0-1-0.02-1.99-0.06-2.98l15.44-8.32l44.56,7.03c0.04,1.42,0.07,2.84,0.07,4.27C952.27,213.29,951.81,219.7,950.93,226.01z"/>
	<path class="st3" d="M816.88,26.77c5.85,0.09,11.62,0.46,17.32,1.1c1.2,2.79,1.23,8.41,1.34,12.32c1.09-3.77,2.56-9.19,4.43-11.58
		c6.04,0.87,11.98,2.05,17.82,3.5c0.83,2.92,0.12,8.51-0.31,12.42c1.59-3.59,3.78-8.81,5.96-10.92c5.58,1.59,11.05,3.44,16.39,5.54
		c0.46,2.99-0.96,8.46-1.89,12.29c2.04-3.36,4.87-8.24,7.3-10.06c5.58,2.41,11.01,5.09,16.28,8.02c0.04,3.03-2.08,8.24-3.51,11.9
		c2.46-3.05,5.91-7.5,8.55-8.99c4.97,2.98,9.78,6.19,14.42,9.63c-0.36,3.01-3.13,7.9-5,11.33c2.83-2.7,6.8-6.67,9.62-7.81
		c4.76,3.76,9.32,7.77,13.67,11.98c-0.76,2.94-4.15,7.4-6.46,10.55c3.15-2.3,7.61-5.69,10.56-6.46c4.03,4.16,7.85,8.5,11.46,13.03
		c-1.13,2.82-5.06,6.81-7.76,9.65c3.43-1.88,8.31-4.68,11.32-5.05c3.62,4.84,6.99,9.88,10.12,15.09c-1.48,2.65-5.93,6.09-8.99,8.55
		c3.66-1.41,8.87-3.55,11.9-3.51c2.8,5.03,5.37,10.21,7.69,15.52c-1.8,2.44-6.66,5.29-10.02,7.34c3.82-0.93,9.28-2.39,12.28-1.95
		c2.23,5.59,4.18,11.31,5.85,17.16c-2.1,2.18-7.31,4.37-10.92,5.96c3.9-0.42,9.5-1.13,12.42-0.3c1.39,5.57,2.53,11.23,3.38,16.99
		c-2.38,1.89-7.8,3.38-11.57,4.49c3.91,0.09,9.53,0.1,12.32,1.28c0.7,5.96,1.09,12.02,1.19,18.14c-2.62,1.54-8.16,2.3-12.03,2.89
		c3.86,0.6,9.41,1.36,12.03,2.9c-0.1,5.85-0.46,11.62-1.1,17.32c-2.79,1.2-8.4,1.24-12.32,1.33c3.76,1.1,9.19,2.56,11.58,4.43
		c-0.87,6.04-2.05,11.98-3.5,17.81c-2.92,0.83-8.51,0.12-12.42-0.31c3.59,1.59,8.81,3.78,10.92,5.96
		c-1.59,5.58-3.44,11.05-5.54,16.39c-3,0.46-8.46-0.96-12.29-1.89c3.36,2.04,8.24,4.87,10.06,7.3c-2.41,5.58-5.09,11.01-8.02,16.28
		c-3.03,0.04-8.24-2.09-11.9-3.51c3.05,2.46,7.5,5.9,8.99,8.55c-2.98,4.97-6.2,9.78-9.63,14.42c-3.01-0.36-7.9-3.13-11.33-5
		c2.7,2.83,6.67,6.8,7.81,9.62c-3.76,4.76-7.77,9.32-11.98,13.67c-2.94-0.76-7.4-4.15-10.56-6.46c2.3,3.15,5.7,7.61,6.46,10.56
		c-4.15,4.03-8.5,7.85-13.03,11.46c-2.82-1.13-6.81-5.06-9.65-7.76c1.88,3.43,4.69,8.31,5.05,11.32
		c-4.84,3.62-9.88,6.99-15.08,10.11c-2.65-1.48-6.1-5.93-8.55-8.99c1.41,3.66,3.54,8.87,3.5,11.9c-5.03,2.8-10.21,5.37-15.52,7.69
		c-2.44-1.8-5.29-6.66-7.34-10.02c0.93,3.82,2.39,9.28,1.95,12.28c-5.59,2.23-11.31,4.19-17.16,5.85c-2.18-2.1-4.37-7.31-5.96-10.92
		c0.42,3.9,1.13,9.5,0.3,12.42c-5.57,1.39-11.23,2.52-16.99,3.38c-1.89-2.38-3.38-7.8-4.49-11.57c-0.09,3.91-0.09,9.53-1.28,12.32
		c-5.96,0.69-12.01,1.1-18.14,1.19c-1.54-2.62-2.29-8.17-2.89-12.03c-0.59,3.87-1.35,9.41-2.89,12.03
		c-5.85-0.09-11.62-0.46-17.32-1.1c-1.2-2.79-1.24-8.4-1.33-12.32c-1.1,3.76-2.56,9.19-4.43,11.58c-6.04-0.87-11.98-2.05-17.81-3.5
		c-0.83-2.92-0.11-8.52,0.3-12.42c-1.58,3.61-3.77,8.81-5.96,10.92c-5.58-1.59-11.05-3.44-16.39-5.54c-0.45-3,0.98-8.47,1.89-12.29
		c-2.03,3.37-4.86,8.25-7.3,10.06c-5.58-2.41-11.01-5.09-16.28-8.02c-0.04-3.04,2.1-8.25,3.51-11.9c-2.46,3.06-5.9,7.51-8.55,8.99
		c-4.97-2.98-9.78-6.2-14.42-9.63c0.36-3.02,3.14-7.9,5-11.34c-2.82,2.72-6.8,6.67-9.62,7.81c-4.76-3.76-9.32-7.76-13.67-11.98
		c0.76-2.94,4.16-7.4,6.46-10.56c-3.15,2.31-7.61,5.7-10.55,6.46c-4.03-4.16-7.85-8.5-11.46-13.03c1.13-2.82,5.08-6.81,7.76-9.65
		c-3.43,1.89-8.3,4.69-11.32,5.06c-3.62-4.84-6.99-9.88-10.11-15.08c1.48-2.65,5.94-6.09,8.99-8.55c-3.66,1.42-8.87,3.55-11.9,3.51
		c-2.8-5.03-5.37-10.21-7.69-15.52c1.8-2.44,6.68-5.29,10.02-7.34c-3.82,0.95-9.28,2.39-12.28,1.95
		c-2.23-5.59-4.19-11.31-5.85-17.16c2.11-2.18,7.32-4.36,10.92-5.96c-3.91,0.43-9.5,1.14-12.42,0.31
		c-1.39-5.57-2.53-11.23-3.39-16.99c2.38-1.89,7.81-3.37,11.57-4.49c-3.92-0.08-9.53-0.09-12.32-1.28
		c-0.69-5.96-1.09-12.02-1.19-18.14c2.62-1.54,8.17-2.29,12.03-2.89c-3.86-0.59-9.41-1.35-12.03-2.89
		c0.09-5.85,0.46-11.62,1.1-17.32c2.79-1.2,8.41-1.23,12.32-1.34c-3.77-1.09-9.19-2.56-11.58-4.43c0.87-6.04,2.05-11.98,3.5-17.81
		c2.92-0.83,8.52-0.11,12.42,0.3c-3.61-1.59-8.82-3.77-10.92-5.96c1.59-5.58,3.44-11.05,5.54-16.39c3-0.46,8.47,0.98,12.29,1.89
		c-3.37-2.03-8.25-4.86-10.06-7.3c2.41-5.58,5.09-11.01,8.02-16.28c3.04-0.04,8.25,2.1,11.9,3.51c-3.06-2.46-7.51-5.9-8.99-8.55
		c2.98-4.97,6.19-9.78,9.63-14.42c3.02,0.36,7.9,3.14,11.33,5c-2.72-2.82-6.67-6.8-7.81-9.62c3.76-4.76,7.77-9.32,11.98-13.67
		c2.94,0.76,7.4,4.16,10.55,6.46c-2.31-3.15-5.7-7.61-6.46-10.56c4.16-4.02,8.5-7.85,13.03-11.46c2.82,1.13,6.81,5.08,9.65,7.76
		c-1.89-3.43-4.69-8.3-5.06-11.32c4.84-3.62,9.88-6.99,15.09-10.12c2.65,1.48,6.09,5.94,8.55,8.99c-1.42-3.66-3.55-8.87-3.51-11.9
		c5.03-2.8,10.21-5.37,15.52-7.69c2.44,1.8,5.29,6.68,7.34,10.02c-0.95-3.82-2.39-9.28-1.95-12.28c5.59-2.23,11.31-4.19,17.16-5.85
		c2.18,2.11,4.36,7.32,5.96,10.92c-0.43-3.91-1.14-9.5-0.3-12.42c5.57-1.39,11.23-2.53,16.99-3.39c1.88,2.38,3.37,7.81,4.49,11.57
		c0.08-3.92,0.09-9.53,1.28-12.32c5.96-0.69,12.02-1.09,18.14-1.19c1.54,2.62,2.3,8.16,2.89,12.03
		C814.59,34.95,815.34,29.39,816.88,26.77L816.88,26.77z M946.58,290.27c16.85-25.26,26.67-55.6,26.67-88.24
		c0-87.96-71.3-159.27-159.26-159.27c-87.96,0-159.27,71.31-159.27,159.27c0,32.64,9.83,62.98,26.67,88.24
		c27.74,43.99,76.75,73.21,132.59,73.21C869.83,363.48,918.84,334.25,946.58,290.27L946.58,290.27z M813.98,59.19
		c-81.54,0-147.64,66.1-147.64,147.64c0,81.54,66.1,147.64,147.64,147.64c81.54,0,147.64-66.1,147.64-147.64
		C961.63,125.29,895.52,59.19,813.98,59.19L813.98,59.19z M813.98,63.53c-79.15,0-143.3,64.16-143.3,143.3
		c0,79.14,64.16,143.3,143.3,143.3c79.14,0,143.3-64.16,143.3-143.3C957.29,127.69,893.13,63.53,813.98,63.53z"/>
	<path class="st4" d="M562.35,211.9c-6.32,16.61-13.37,30.06-21.03,40.88c-0.26,9.28-2.46,15.92-5.17,21.86
		c14.45-9.69,28.56-25.6,39.22-55.57c3.46-9.74,2.9-13.01,1-10.85c-7.91,17.12-16.01,30.05-24.36,37.38
		C559.62,232.52,572.76,210.75,562.35,211.9z M576.62,239.97c-2.38,13.67-6.91,23.59-12.85,31.04c23.4-6,39.4-32.54,51.23-70.59
		c-21.36,8.73-21.69,31.82-32.54,47.73c8.07-18.19,3.11-26.03,24.2-54.57C594.33,202.53,584.05,217.23,576.62,239.97z
		 M501.48,255.75c-0.47,8.5-3.31,15.87-8.01,22.36c28.86-7.81,49.07-30.68,60.57-68.75c-3.42-5.13-8.71-1.44-14.69,10.51
		c-10.24,20.5-21.94,34.73-34.95,45.82c14.04-16.76,23.14-32.29,22.94-45.49C519.74,232.87,511.31,244.88,501.48,255.75z
		 M512.37,196.52c4.21-5.57,7.16-10.46,7.34-15.68c-22.03,15.35-29.04,42.05-58.57,67.08c-5.48,15.01-14.33,25.43-25.36,32.87
		c35.61-2.16,62.46-25.76,84.27-61.74c-4.56,2.05-9.07,3.24-13.52,3.5c8.59-5.6,15.44-15.04,20.02-29.54
		c-4.35,1.71-9.47,5.95-15.35,13.02c-15.21,18.28-16.69,39.27-45.55,54.9C488.04,245.21,496.37,217.67,512.37,196.52z
		 M291.74,265.15c6.05-9.15-3.98-10.78-15.35-7.68c-55.79,15.05-109.08,21.34-159.53,17.69c55.71-2.78,108.04-13.79,157.53-31.71
		c-10.09-2.06-18.95-6.39-26.37-13.35c16.39,0.19,32.23-1.07,46.39-6.67c-9.64-6.23-24.18-8.79-48.06-4.34
		c-32,7.08-64.34,29.68-102.02,35.76l0.05-0.02c-26.91,9.69-56.04,15.89-90.67,13.41c34.62,20.46,71.78,31.5,111.34,33.66
		C215.81,299.83,279.48,283.7,291.74,265.15z M356.18,209.63c-24.36,9.01-36.88,22.36-73.09,27.03
		c63.01,28.68,166.39-3.31,203.25-66.41c-5.22,1.11-11.26,4.49-19.36,10.68c-36.58,27.98-86.54,40.36-135.5,51.06
		c46.04-12.05,89.01-30.89,128.82-56.74C426.37,191.36,391.9,204.2,356.18,209.63z M619.84,205.27c-2.24,7.54-5.04,14.66-8.18,21.53
		c-0.69,11.27-3.09,19.77-6.67,26.37c8.36-2.25,15.91-7.32,22.5-15.61c-0.74-4.53-1.32-9.12-1.73-13.75
		c-3.16,6.47-6.96,11.44-11.26,15.18c5.48-8.2,9.12-17.95,10.52-29.57c-0.01-0.86-0.03-1.71-0.03-2.57c0-2.6,0.07-5.19,0.17-7.77
		C623.21,199.1,621.41,200.95,619.84,205.27z M388.87,258.96c19.78-8.03,37.75-18.95,53.75-32.99
		c-13.73,6.2-27.82,11.21-42.22,15.19c-11.55,11.71-25.55,20.72-41.55,27.53c51.04-1.83,88.85-12.81,109.63-35.54
		c15.12-16.53,26.59-38.38,39.88-52.56c-7.12,1.61-13.97,5.51-20.69,11.51C463.71,213.51,458.52,236.17,388.87,258.96z
		 M399.21,140.67c-14.36,4.31-28.54,6.45-42.46,5.42c-38.9,14.42-88.44,31.71-164.2,34.04c19.06,12.76,42.58,20.83,70.09,24.7
		c106.42,8.71,186.12-20.8,228.02-64.5c-9.62-7.27-20.64-10.2-34.71-3.67c-72.26,34.41-136.89,45.27-198.91,48.06
		c62.98-7.33,119.35-21.48,167.21-44.39C421.96,137.41,416.64,136.01,399.21,140.67z M1134.5,278.11
		c-4.7-6.49-7.54-13.86-8.01-22.36c-9.83-10.88-18.26-22.88-25.86-35.54c-0.2,13.2,8.9,28.73,22.94,45.49
		c-13.01-11.1-24.71-25.33-34.95-45.82c-5.97-11.95-11.27-15.65-14.69-10.51C1085.42,247.43,1105.64,270.31,1134.5,278.11z
		 M1064.2,271.01c-5.94-7.44-10.47-17.36-12.85-31.04c-7.43-22.74-17.71-37.44-30.04-46.39c21.08,28.53,16.13,36.38,24.2,54.57
		c-10.85-15.91-11.18-38.99-32.54-47.73C1024.8,238.47,1040.79,265.01,1064.2,271.01z M1091.82,274.65
		c-2.71-5.94-4.91-12.58-5.17-21.86c-7.66-10.83-14.71-24.27-21.02-40.88c-10.41-1.15,2.73,20.62,10.34,33.71
		c-8.35-7.33-16.45-20.26-24.36-37.38c-1.89-2.16-2.46,1.1,1,10.85C1063.26,249.05,1077.37,264.96,1091.82,274.65z M1002.21,223.79
		c-0.41,4.62-0.99,9.2-1.74,13.75c6.6,8.3,14.14,13.37,22.51,15.62c-3.58-6.6-5.98-15.1-6.67-26.37
		c-3.14-6.87-5.93-13.99-8.18-21.53c-1.57-4.32-3.37-6.17-5.32-6.2c0.1,2.58,0.17,5.16,0.17,7.77c0,0.86-0.02,1.72-0.03,2.58
		c1.41,11.62,5.04,21.37,10.52,29.57C1009.17,235.23,1005.37,230.26,1002.21,223.79z M1344.88,236.66
		c-36.21-4.67-48.73-18.02-73.09-27.03c-35.71-5.42-70.19-18.27-104.13-34.38c39.81,25.85,82.79,44.69,128.83,56.74
		c-48.96-10.7-98.92-23.08-135.5-51.06c-8.1-6.19-14.13-9.57-19.36-10.68C1178.49,233.35,1281.87,265.33,1344.88,236.66z
		 M359.16,283.18c-43.51,24.64-84.76,43.61-126.49,53.73c41.01-13.41,80.47-32.98,117.48-62.41c-6.91,1.02-13.56-0.13-20.02-2.67
		c7.89-0.84,15.61-2.16,22.03-6.34c6.52-4.25,10.46-8.78,3.01-12.35c-11.24-4.28-46.76,15.51-55.74,24.7
		c-14.59,14.93-29.96,23.33-44.94,28.08c-16.44,14.41-32.65,28.88-68.61,39.09c22.37,4.26,44.74,4.68,67.11,1.62
		c44.36-9.56,84.17-28.2,117.85-59.11C376.46,282.32,370.75,276.61,359.16,283.18z M1435.42,180.13
		c-75.76-2.34-125.3-19.62-164.2-34.04c-13.92,1.03-28.1-1.11-42.46-5.42c-17.43-4.66-22.75-3.25-25.03-0.33
		c47.85,22.91,104.22,37.05,167.2,44.39c-62.02-2.79-126.65-13.65-198.91-48.06c-14.07-6.53-25.09-3.6-34.71,3.67
		c41.89,43.69,121.6,73.2,228.02,64.5C1392.84,200.96,1416.36,192.89,1435.42,180.13z M1227.57,241.16
		c-14.4-3.98-28.49-8.98-42.22-15.19c16,14.03,33.96,24.96,53.75,32.99c-69.65-22.79-74.84-45.45-98.8-66.86
		c-6.72-6.01-13.57-9.9-20.69-11.51c13.29,14.18,24.76,36.03,39.88,52.56c20.79,22.73,58.6,33.71,109.63,35.54
		C1253.12,261.89,1239.12,252.87,1227.57,241.16z M1166.83,247.92c-29.54-25.03-36.55-51.73-58.57-67.08
		c0.18,5.23,3.13,10.12,7.34,15.68c16.01,21.15,24.33,48.69,46.72,64.41c-28.87-15.63-30.34-36.62-45.56-54.9
		c-5.88-7.07-11-11.31-15.35-13.02c4.58,14.5,11.44,23.94,20.02,29.54c-4.45-0.27-8.96-1.46-13.52-3.5
		c21.81,35.98,48.66,59.58,84.27,61.74C1181.15,273.35,1172.3,262.92,1166.83,247.92z M1030.18,169.03
		c19.42-7.78,29.64-17.47,27.7-29.7c21.07-5.45,44.57-22.81,70.09-50.06c18.08-4.73,29.48,13.41,68.75,11.35
		c-2.53,3.93-6.25,5.97-11.01,6.34c48.12,36.55,95.68,38.85,142.91,21.11c-61.41,4.12-176.32-78.66-212.26-73.42
		c-18.71,2.72-66.78,82.88-100.79,86.11c-6.62,0.63-18.87-7.2-29.28-11.68c3.97,8.77,7.27,17.91,9.87,27.33
		C1005.97,160.47,1017.47,167.04,1030.18,169.03z M1082.91,306.87c4.97,12.5,13.49,22.43,23.36,31.37
		c-19.73-14.53-35.45-32.64-46.72-54.73c4.94,26.19,19.71,50.69,50.45,72.44c12.15,6.73,24.51,11.5,37.06,14.42
		c-3.83-4.74-8.18-10.16-13.35-16.69C1113.65,341.6,1097.64,324.96,1082.91,306.87z M1184.09,360.47
		c-5.11-1.53-10.07-4.01-14.74-8.54c-21.63-11-41.55-26.16-60.07-44.72c17.57,24.93,41.51,42.27,68.42,56.07
		c-24.39-9.48-43.83-23.4-59.83-37.32c-8.28-7.2-19.72-23.09-27.61-26.42c16.07,27.68,39.81,52.57,79.01,71.79
		c13.62,4.49,26.64,6.15,39.2,5.72C1199.53,372.6,1191.43,367.05,1184.09,360.47L1184.09,360.47z M1020.84,275.17
		c-2.67-6.79-5.46-8.11-8.34-5.34c0.68,9.96,4.87,18.52,10.01,26.7c-7.52-6.28-13.39-14.63-17.35-25.36
		c-0.45,24.27,10.07,45.65,33.2,63.7c3.46,2.09,6.99,3.91,10.59,5.47c-2.23-7.34-4.45-14.69-6.68-22.03
		C1032.87,305.97,1025.34,291.94,1020.84,275.17z M1037.86,268.16c1.77,15.04,6.13,28.46,15.02,39.05
		c-11.61-8.42-19.44-20.62-25.7-34.38c7.02,25.4,18.47,48.94,39.29,68.55c9.61,6.86,19.6,11.66,29.87,14.97
		c-4.89-6.67-9.79-13.35-14.69-20.03C1059.92,316.24,1046.4,292.86,1037.86,268.16z M1222.88,342.85L1222.88,342.85
		c-22.2-13.31-43.02-27.56-58.54-45.33c-5.97-4.49-11.58-5.19-15.35,0c-6.57,9.05,48.38,43.96,75.09,62.41
		c-35.33-16.54-68.36-36.63-98.79-60.74c18.72,30.99,47.04,53.11,83.11,68.09c12.73,3.94,26.23,6.28,40.78,6.42
		C1238.92,364.09,1229.99,353.88,1222.88,342.85z M1297.4,329.15c-30.46-15.32-59.46-31.4-77.9-52.06
		c-8.81-9.17-17.2-8.97-20.78-3.59c0.09,4.42,6.81,8.04,16.02,11.35c-2.77,1.28-5.8,1.4-9.01,0.67
		c26.18,30.53,61.14,49.81,98.45,66.08c-32.46-12.28-64.73-24.88-90.44-48.39c0.14,21.94,23.97,40.83,72.6,56.53
		c15.13,2.68,30.55,4.02,46.28,3.96C1318.38,354.21,1306.82,342.55,1297.4,329.15z M1483.58,254.83l0.05,0.02
		c-37.68-6.08-70.01-28.68-102.02-35.76c-23.88-4.45-38.42-1.89-48.06,4.34c14.16,5.6,30,6.86,46.39,6.67
		c-7.42,6.96-16.28,11.29-26.37,13.35c49.48,17.91,101.81,28.92,157.53,31.71c-50.45,3.65-103.74-2.64-159.53-17.69
		c-11.37-3.11-21.4-1.47-15.35,7.68c12.26,18.54,75.93,34.67,126.69,36.74c39.56-2.16,76.72-13.2,111.34-33.66
		C1539.62,270.72,1510.5,264.52,1483.58,254.83z M1328.55,277.83c-8.97-9.19-44.5-28.98-55.74-24.7c-7.45,3.57-3.52,8.1,3,12.35
		c6.41,4.18,14.14,5.5,22.03,6.34c-6.47,2.54-13.11,3.69-20.03,2.67c37,29.43,76.47,49,117.48,62.41
		c-41.73-10.12-82.98-29.1-126.49-53.73c-11.59-6.56-17.3-0.85-11.68,4.34c33.68,30.91,73.49,49.55,117.85,59.11
		c22.37,3.06,44.74,2.63,67.11-1.62c-35.96-10.21-52.16-24.68-68.61-39.09C1358.51,301.16,1343.13,292.77,1328.55,277.83z
		 M612.4,140.75c-34.01-3.23-82.08-83.38-100.79-86.11c-35.94-5.23-150.85,77.54-212.26,73.42c47.23,17.74,94.79,15.44,142.91-21.11
		c-4.76-0.37-8.48-2.41-11.01-6.34c39.27,2.06,50.67-16.08,68.75-11.35c25.52,27.25,49.02,44.62,70.09,50.06
		c-1.94,12.23,8.28,21.92,27.7,29.7c12.72-2,24.21-8.56,34.02-12.63c2.6-9.42,5.91-18.56,9.87-27.33
		C631.27,133.55,619.02,141.38,612.4,140.75z M575.09,307.21c8.89-10.59,13.25-24.01,15.02-39.05
		c-8.54,24.7-22.06,48.09-43.79,68.16c-4.9,6.68-9.79,13.35-14.69,20.03c10.27-3.31,20.26-8.1,29.87-14.97
		c20.82-19.61,32.27-43.15,39.29-68.55C594.52,286.59,586.7,298.79,575.09,307.21z M537.71,299.53
		c-7.89,3.33-19.33,19.22-27.61,26.42c-16,13.92-35.44,27.84-59.83,37.32c26.91-13.8,50.85-31.14,68.42-56.07
		c-18.52,18.56-38.44,33.72-60.07,44.72c-4.66,4.53-9.63,7.01-14.74,8.54h0c-7.33,6.58-15.44,12.13-24.38,16.57
		c12.57,0.43,25.58-1.23,39.2-5.72C497.9,352.09,521.64,327.21,537.71,299.53z M568.42,283.51c-11.28,22.09-27,40.21-46.73,54.73
		c9.87-8.94,18.39-18.87,23.36-31.37c-14.72,18.09-30.73,34.73-50.8,46.81c-5.17,6.52-9.52,11.95-13.35,16.69
		c12.56-2.92,24.92-7.69,37.06-14.42C548.71,334.2,563.48,309.7,568.42,283.51z M502.67,299.2c-30.43,24.11-63.46,44.2-98.79,60.74
		c26.71-18.45,81.66-53.36,75.09-62.41c-3.77-5.19-9.38-4.49-15.35,0c-15.52,17.77-36.33,32.01-58.53,45.33h0
		c-7.11,11.02-16.04,21.23-26.31,30.85c14.55-0.14,28.05-2.48,40.78-6.42C455.62,352.31,483.95,330.19,502.67,299.2z M414.23,303.2
		c-25.72,23.52-57.99,36.11-90.44,48.39c37.32-16.27,72.28-35.55,98.45-66.08c-3.21,0.73-6.24,0.61-9.01-0.67
		c9.21-3.31,15.94-6.92,16.02-11.35c-3.58-5.38-11.97-5.58-20.78,3.59c-18.44,20.66-47.44,36.74-77.9,52.06
		c-9.42,13.4-20.98,25.07-35.23,34.54c15.72,0.06,31.15-1.28,46.28-3.96C390.26,344.03,414.08,325.14,414.23,303.2z M994.47,272.5
		c-6.22,12.02-5.29,24.29,1.62,36.76c3.2,3.05,6.59,5.59,10.13,7.71c-0.22-4.67-0.45-9.34-0.67-14.02
		C999.78,293.94,995.8,283.95,994.47,272.5z M622.82,271.16c-3.96,10.73-9.83,19.08-17.35,25.36c5.14-8.18,9.33-16.74,10.01-26.7
		c-2.89-2.77-5.68-1.45-8.34,5.34c-4.5,16.78-12.03,30.81-21.43,43.13c-2.23,7.34-4.45,14.69-6.68,22.03
		c3.6-1.56,7.13-3.37,10.59-5.47C612.75,316.81,623.26,295.44,622.82,271.16z M622.41,302.95c-0.22,4.67-0.45,9.35-0.67,14.02
		c3.55-2.11,6.93-4.66,10.13-7.71c6.9-12.47,7.84-24.74,1.62-36.76C632.17,283.95,628.19,293.94,622.41,302.95z"/>
	<path class="st5" d="M192.55,180.13c23.49,4.68,47.52,5.9,72,4.21c-2.51,0.14-5.01,0.27-7.51,0.38
		c39.92-4.65,77.19-12.03,111.31-22.65c-11.32-2.44-21.41-5.5-29.99-9.31C302.3,165.39,256.88,178.15,192.55,180.13z M322.66,225.43
		L322.66,225.43c-10.37,4.78-22.26,8.99-39.57,11.23c17.1-0.23,33.53-1.6,48.86-4.8c8.4-2.21,16.7-4.64,24.9-7.31
		C345.45,226.56,334.06,227.21,322.66,225.43z M240.56,317.72L240.56,317.72c-12.72,10.07-28.11,19.57-53.45,26.92l-0.54,0.49h0
		c16.3-0.6,33.16-3.89,50.15-9.23c-1.35,0.35-2.7,0.68-4.05,1.01c17.67-5.78,35.06-12.71,52.09-21.07
		C269.36,317.99,254.4,319.13,240.56,317.72z M263.26,247.35c-19.05-3.55-35.55-9.1-48.37-17.54c-22.11,9.3-45.11,20.94-70.55,25.04
		l0.05-0.02c-26.91,9.69-56.04,15.89-90.67,13.41c24.37,6.3,50.66,8.98,79.02,7.74c-5.32-0.17-10.61-0.44-15.87-0.82
		C168.42,272.59,217.07,262.97,263.26,247.35z M612.4,140.75c-34.01-3.23-82.08-83.38-100.79-86.11
		c-35.94-5.23-150.85,77.54-212.26,73.42c63.33,10.52,184.13-66.2,204.42-58.71c25.92,15.02,72.72,76.49,107.69,81.04
		c6.14,0.8,15.25-4.12,25.14-8.92c1.55-4.21,3.25-8.35,5.08-12.42C631.27,133.55,619.02,141.38,612.4,140.75z M1305.31,225.43
		L1305.31,225.43c-11.4,1.78-22.8,1.13-34.2-0.87c8.2,2.66,16.49,5.1,24.9,7.31c15.34,3.2,31.76,4.57,48.86,4.8
		C1327.57,234.43,1315.67,230.21,1305.31,225.43z M1328.62,128.07c-61.41,4.12-176.32-78.66-212.26-73.42
		c-18.71,2.72-66.78,82.88-100.79,86.11c-6.62,0.63-18.87-7.2-29.28-11.68c1.84,4.06,3.53,8.21,5.08,12.42
		c9.89,4.8,19,9.72,25.14,8.91c34.97-4.56,81.77-66.03,107.69-81.04C1144.5,61.87,1265.29,138.59,1328.62,128.07z M1483.58,254.83
		l0.04,0.02c-25.44-4.1-48.44-15.74-70.55-25.04c-12.82,8.44-29.32,14-48.37,17.54c46.19,15.62,94.84,25.24,146.4,27.81
		c-5.26,0.38-10.55,0.65-15.87,0.82c28.36,1.24,54.65-1.44,79.02-7.74C1539.63,270.72,1510.5,264.52,1483.58,254.83z
		 M1387.41,317.72L1387.41,317.72c-13.85,1.4-28.8,0.27-44.2-1.88c17.03,8.36,34.41,15.29,52.09,21.07
		c-1.35-0.33-2.7-0.66-4.05-1.01c16.99,5.34,33.84,8.64,50.14,9.23h0l-0.54-0.49C1415.53,337.29,1400.13,327.79,1387.41,317.72z
		 M1363.42,184.34c24.48,1.69,48.5,0.47,72-4.21c-64.33-1.98-109.75-14.75-145.81-27.38c-8.58,3.81-18.67,6.87-29.99,9.31
		c34.12,10.62,71.39,18.01,111.31,22.65C1368.43,184.61,1365.93,184.48,1363.42,184.34z"/>
	<path class="st4" d="M813.98,134.28c-40.07,0-72.55,32.48-72.55,72.55c0,3.93,0.32,7.78,0.92,11.54
		c6.18,21.49,18.6,36.75,25.15,32.87c1.69-1-10.38-16.22-10.38-44.41c0-31.4,25.46-56.86,56.86-56.86
		c31.41,0,56.86,25.46,56.86,56.86c0,32.84-12.11,43.38-10.38,44.41c6.55,3.88,18.97-11.37,25.15-32.87
		c0.6-3.76,0.92-7.61,0.92-11.54C886.53,166.76,854.05,134.28,813.98,134.28z M813.98,155.64c-28.27,0-51.19,22.92-51.19,51.19
		c0,28.27,22.92,51.19,51.19,51.19c28.27,0,51.19-22.92,51.19-51.19C865.17,178.56,842.26,155.64,813.98,155.64z M766.86,209.46
		c-1.45,0-2.63-1.17-2.63-2.63c0-1.45,1.18-2.63,2.63-2.63c1.45,0,2.63,1.18,2.63,2.63C769.49,208.28,768.31,209.46,766.86,209.46z
		 M770.9,181.96c0.73-1.26,2.33-1.69,3.59-0.96c1.26,0.73,1.69,2.33,0.96,3.59c-0.72,1.26-2.33,1.69-3.59,0.96
		C770.61,184.82,770.17,183.21,770.9,181.96z M774.49,232.67c-1.26,0.73-2.86,0.3-3.59-0.96c-0.73-1.26-0.3-2.86,0.96-3.59
		c1.26-0.72,2.86-0.3,3.59,0.96C776.18,230.33,775.74,231.94,774.49,232.67z M792.7,248.95c-0.72,1.26-2.33,1.69-3.59,0.96
		c-1.26-0.73-1.69-2.33-0.96-3.59c0.73-1.26,2.33-1.69,3.59-0.96C792.99,246.09,793.42,247.7,792.7,248.95z M791.74,168.3
		c-1.26,0.73-2.86,0.29-3.59-0.96c-0.73-1.26-0.3-2.86,0.96-3.59c1.26-0.73,2.86-0.3,3.59,0.96
		C793.42,165.97,792.99,167.57,791.74,168.3z M813.98,256.58c-1.45,0-2.63-1.18-2.63-2.63c0-1.45,1.18-2.63,2.63-2.63
		c1.45,0,2.63,1.18,2.63,2.63C816.61,255.4,815.44,256.58,813.98,256.58z M813.98,162.34c-1.45,0-2.63-1.18-2.63-2.63
		c0-1.45,1.18-2.63,2.63-2.63c1.45,0,2.63,1.18,2.63,2.63C816.61,161.16,815.44,162.34,813.98,162.34z M838.86,249.91
		c-1.26,0.73-2.86,0.29-3.59-0.96c-0.72-1.26-0.3-2.86,0.96-3.59c1.26-0.73,2.86-0.3,3.59,0.96
		C840.54,247.58,840.12,249.19,838.86,249.91z M839.82,167.33c-0.73,1.26-2.33,1.69-3.59,0.96c-1.26-0.73-1.69-2.33-0.96-3.59
		c0.73-1.26,2.33-1.69,3.59-0.96C840.12,164.47,840.54,166.08,839.82,167.33z M857.07,231.7c-0.73,1.26-2.33,1.69-3.59,0.96
		c-1.26-0.73-1.69-2.33-0.96-3.59c0.73-1.26,2.33-1.69,3.59-0.96C857.36,228.84,857.79,230.45,857.07,231.7z M856.11,185.54
		c-1.26,0.73-2.86,0.3-3.59-0.96c-0.72-1.26-0.29-2.86,0.96-3.59c1.26-0.73,2.86-0.3,3.59,0.96
		C857.79,183.21,857.36,184.82,856.11,185.54z M861.11,209.46c-1.45,0-2.63-1.17-2.63-2.63c0-1.45,1.18-2.63,2.63-2.63
		c1.45,0,2.63,1.18,2.63,2.63C863.73,208.28,862.56,209.46,861.11,209.46z"/>
	<circle class="st2" cx="813.98" cy="206.83" r="43.18"/>
	<path class="st3" d="M813.98,243c19.98,0,36.17-16.19,36.17-36.17c0-19.98-16.19-36.17-36.17-36.17
		c-19.98,0-36.17,16.19-36.17,36.17C777.81,226.81,794.01,243,813.98,243z"/>
	<path class="st5" d="M882.3,191.05c-7.16-31.12-35.03-54.32-68.32-54.32c-33.29,0-61.16,23.21-68.32,54.32
		c9.83-26.4,36.7-45.35,68.32-45.35C845.6,145.7,872.48,164.65,882.3,191.05z M843.05,203.72c0.09-0.91,0.14-1.83,0.14-2.76
		c0-15.39-13.08-27.86-29.21-27.86c-16.13,0-29.21,12.48-29.21,27.86c0,0.93,0.05,1.85,0.14,2.76c0.71-6.88,4.05-13.03,9.04-17.52
		c-1.66,2.47-2.59,5.28-2.59,8.26c0,9.81,10.13,17.76,22.62,17.76c12.49,0,22.62-7.95,22.62-17.76c0-2.98-0.94-5.79-2.6-8.26
		C839,190.69,842.34,196.84,843.05,203.72z M862.48,209.07c0.55,1.92,1,3.89,1.32,5.9c0.43-2.65,0.66-5.37,0.66-8.13
		c0-27.88-22.6-50.48-50.48-50.48c-27.88,0-50.48,22.6-50.48,50.48c0,2.77,0.23,5.49,0.66,8.13c0.32-2.01,0.77-3.98,1.32-5.9
		c-0.75-0.46-1.25-1.29-1.25-2.24c0-1.45,1.18-2.63,2.63-2.63c0.1,0,0.2,0.01,0.3,0.02c1.14-2.83,2.54-5.54,4.15-8.09
		c4.78-19.12,22.07-33.29,42.67-33.29c20.6,0,37.89,14.16,42.67,33.29c1.61,2.55,3.01,5.26,4.15,8.09c0.1-0.01,0.2-0.02,0.3-0.02
		c1.45,0,2.63,1.18,2.63,2.63C863.73,207.78,863.23,208.61,862.48,209.07z M775.45,184.58c-0.72,1.26-2.33,1.69-3.59,0.96
		c-1.26-0.73-1.69-2.33-0.96-3.59c0.73-1.26,2.33-1.69,3.59-0.96C775.74,181.72,776.18,183.33,775.45,184.58z M791.74,168.3
		c-1.26,0.73-2.86,0.29-3.59-0.96c-0.73-1.26-0.3-2.86,0.96-3.59c1.26-0.73,2.86-0.3,3.59,0.96
		C793.42,165.97,792.99,167.57,791.74,168.3z M813.98,162.34c-1.45,0-2.63-1.18-2.63-2.63c0-1.45,1.18-2.63,2.63-2.63
		c1.45,0,2.63,1.18,2.63,2.63C816.61,161.16,815.44,162.34,813.98,162.34z M839.82,167.33c-0.73,1.26-2.33,1.69-3.59,0.96
		c-1.26-0.73-1.69-2.33-0.96-3.59c0.73-1.26,2.33-1.69,3.59-0.96C840.12,164.47,840.54,166.08,839.82,167.33z M856.11,185.54
		c-1.26,0.73-2.86,0.3-3.59-0.96c-0.72-1.26-0.29-2.86,0.96-3.59c1.26-0.73,2.86-0.3,3.59,0.96
		C857.79,183.21,857.36,184.82,856.11,185.54z M977.7,163.19c2.13,6.71,3.87,13.59,5.22,20.62c3.4-1.01,7.26-2.27,9.17-3.78
		c-0.86-5.76-2-11.42-3.38-16.99C986.12,162.3,981.45,162.78,977.7,163.19z M985.78,206.24c3.13-0.52,6.42-1.22,8.26-2.3
		c-0.1-6.12-0.5-12.18-1.19-18.14c-2.23-0.95-6.26-1.14-9.78-1.23C984.39,191.65,985.3,198.89,985.78,206.24z M658.13,142.77
		c-3.79-0.92-8.95-2.22-11.82-1.78c-2.1,5.34-3.95,10.81-5.54,16.39c1.86,1.93,6.16,3.87,9.63,5.39
		C652.58,155.91,655.17,149.24,658.13,142.77z M977.58,162.78c3.46-1.52,7.77-3.46,9.63-5.39c-1.67-5.85-3.63-11.57-5.85-17.16
		c-2.88-0.42-8.05,0.91-11.83,1.84C972.61,148.75,975.3,155.66,977.58,162.78z M658.19,142.64
		c27.56-60.17,86.96-101.81,155.8-101.81c68.57,0,127.78,41.31,155.48,101.11c3.33-2.03,7.9-4.76,9.63-7.1
		c-2.32-5.31-4.89-10.49-7.69-15.52c-3.04-0.04-8.25,2.1-11.9,3.51c3.06-2.46,7.51-5.9,8.99-8.55c-3.12-5.21-6.5-10.24-10.12-15.09
		c-3.01,0.37-7.89,3.17-11.32,5.05c2.7-2.83,6.63-6.83,7.76-9.65c-3.61-4.53-7.44-8.88-11.46-13.03c-2.94,0.76-7.4,4.16-10.56,6.46
		c2.31-3.15,5.7-7.61,6.46-10.55c-4.35-4.22-8.91-8.22-13.67-11.98c-2.82,1.14-6.79,5.11-9.62,7.81c1.88-3.44,4.65-8.32,5-11.33
		c-4.64-3.43-9.45-6.65-14.42-9.63c-2.65,1.48-6.09,5.94-8.55,8.99c1.42-3.66,3.55-8.87,3.51-11.9c-5.27-2.94-10.7-5.62-16.28-8.02
		c-2.43,1.81-5.26,6.7-7.3,10.06c0.93-3.83,2.35-9.3,1.89-12.29c-5.34-2.1-10.81-3.95-16.39-5.54c-2.18,2.11-4.36,7.32-5.96,10.92
		c0.43-3.91,1.14-9.5,0.3-12.42c-5.83-1.45-11.77-2.63-17.82-3.5c-1.87,2.39-3.34,7.81-4.43,11.58c-0.1-3.91-0.14-9.52-1.34-12.32
		c-5.7-0.64-11.47-1-17.32-1.1c-1.54,2.62-2.29,8.17-2.89,12.03c-0.59-3.86-1.35-9.41-2.89-12.03c-6.13,0.1-12.18,0.5-18.14,1.19
		c-1.19,2.8-1.2,8.4-1.28,12.32c-1.12-3.75-2.61-9.19-4.49-11.57c-5.76,0.86-11.42,2-16.99,3.39c-0.83,2.92-0.13,8.51,0.3,12.42
		c-1.59-3.59-3.78-8.81-5.96-10.92c-5.85,1.67-11.57,3.63-17.16,5.85c-0.44,3,1,8.46,1.95,12.28c-2.05-3.34-4.9-8.22-7.34-10.02
		c-5.31,2.32-10.49,4.89-15.52,7.69c-0.04,3.03,2.08,8.24,3.51,11.9c-2.46-3.05-5.91-7.5-8.55-8.99
		c-5.21,3.12-10.24,6.5-15.09,10.12c0.37,3.01,3.16,7.88,5.06,11.32c-2.84-2.69-6.83-6.63-9.65-7.76
		c-4.53,3.61-8.87,7.44-13.03,11.46c0.76,2.94,4.15,7.4,6.46,10.56c-3.15-2.3-7.61-5.7-10.55-6.46c-4.22,4.35-8.22,8.91-11.98,13.67
		c1.14,2.82,5.09,6.79,7.81,9.62c-3.44-1.86-8.32-4.64-11.33-5c-3.43,4.64-6.65,9.45-9.63,14.42c1.48,2.65,5.93,6.09,8.99,8.55
		c-3.65-1.41-8.87-3.55-11.9-3.51c-2.93,5.27-5.61,10.7-8.02,16.28C650.28,137.92,654.84,140.63,658.19,142.64z M986.19,218.33
		c0,3.32-0.09,6.61-0.26,9.88c2.7-0.15,5.36-0.45,7.02-1.16c0.64-5.7,1-11.48,1.1-17.32c-1.83-1.07-5.08-1.76-8.18-2.29
		C986.07,211.04,986.19,214.67,986.19,218.33z M960.71,311.27c2.74-3.85,5.34-7.81,7.77-11.87c-0.2-0.35-0.45-0.72-0.74-1.09
		C965.57,302.73,963.23,307.06,960.71,311.27z M813.98,364.77c-80.82,0-148.31-53.43-164.38-124.63
		c16.07,76.04,83.55,133.11,164.38,133.11c80.82,0,148.31-57.07,164.38-133.11C962.29,311.34,894.81,364.77,813.98,364.77z
		 M976.98,275.73c-2.1,6.33-4.54,12.49-7.29,18.47c0.62,0.1,1.19,0.16,1.71,0.15c2.94-5.27,5.62-10.7,8.02-16.28
		C978.86,277.32,978,276.52,976.98,275.73z M977.99,272.59c1.4,0.18,2.67,0.23,3.67,0.08c2.1-5.34,3.95-10.81,5.54-16.39
		c-0.96-0.99-2.56-1.99-4.37-2.93C981.56,259.9,979.94,266.32,977.99,272.59z M650.26,163.19c-3.75-0.41-8.42-0.88-11-0.15
		c-1.45,5.83-2.63,11.77-3.5,17.81c1.91,1.5,5.75,2.73,9.14,3.73C646.26,177.28,648.06,170.14,650.26,163.19z M983.28,250.97
		c2.1,0.1,4.06,0.05,5.42-0.34c1.46-5.83,2.63-11.77,3.5-17.81c-1.4-1.09-3.84-2.05-6.38-2.87
		C985.38,237.07,984.52,244.09,983.28,250.97z M659.48,299.4c2.45,4.09,5.06,8.07,7.82,11.94c-2.53-4.23-4.89-8.57-7.08-13.03
		C659.93,298.68,659.68,299.05,659.48,299.4z M644.76,185.35c-3.51,0.1-7.51,0.32-9.73,1.27c-0.64,5.7-1,11.47-1.1,17.32
		c1.84,1.08,5.13,1.78,8.26,2.3C642.65,199.15,643.51,192.18,644.76,185.35z M641.78,218.33c0-3.66,0.12-7.29,0.33-10.89
		c-3.11,0.53-6.36,1.21-8.18,2.29c0.1,6.13,0.5,12.18,1.19,18.14c1.65,0.7,4.28,0.99,6.97,1.13
		C641.88,225.47,641.78,221.91,641.78,218.33z M648.87,278.83c2.32,5.31,4.89,10.49,7.69,15.52c0.51,0.01,1.09-0.05,1.7-0.15
		c-2.64-5.73-4.98-11.64-7.02-17.69C650.26,277.3,649.42,278.09,648.87,278.83z M644.69,250.97c-1.2-6.62-2.03-13.37-2.49-20.22
		c-2.52,0.83-4.93,1.79-6.32,2.89c0.86,5.76,2,11.42,3.39,16.99C640.63,251.01,642.59,251.07,644.69,250.97z M645.13,253.35
		c-1.8,0.94-3.41,1.93-4.37,2.93c1.67,5.85,3.63,11.57,5.85,17.16c0.98,0.15,2.23,0.09,3.6-0.09
		C648.16,266.84,646.46,260.17,645.13,253.35z"/>
	<path class="st2" d="M813.98,238.15c17.31,0,31.34-10.79,31.34-24.09c0-13.31-14.03,4.27-31.34,4.27
		c-17.31,0-31.34-17.58-31.34-4.27C782.64,227.36,796.67,238.15,813.98,238.15z"/>
	<path class="st2" d="M964.64,296.17c-29.28,53.07-85.76,89.02-150.66,89.02s-121.38-35.95-150.66-89.02
		c30.94,49.54,86.84,82.62,150.66,82.62C877.8,378.78,933.7,345.71,964.64,296.17z"/>
</g>
</svg>
