<?xml version="1.0" encoding="UTF-8"?><svg id="b" xmlns="http://www.w3.org/2000/svg" viewBox="0 0 2367.496 2367.496"><g id="c"><path d="m412.526,1834.371c.223-1108.069-.057-467.738-.101-1295.994l-26.633-38.446c552.274-88.453,1044.151-88.374,1595.928,0l-26.633,38.443c-.007,853.686-.242,569.932-.101,1296.001l26.734,38.59c-509.2,81.269-1087.156,81.201-1595.928,0l26.734-38.594Z" fill="#d5d1c5" fill-rule="evenodd"/><path d="m437.608,1028.624c4.295.07,8.48.032,12.564-.115v-499.846c244.562-39.412,489.09-59.357,733.583-59.474,244.494-.113,489.025,19.592,733.584,59.464v499.856c4.09.147,8.283.185,12.585.114v-493.221l9.739-15.637c-242.07-44.274-509.958-63.225-755.908-63.108-246.994.117-493.956,20.393-740.884,60.472l-15.023,2.637,9.739,15.64c.003,164.407.012,328.812.021,493.218Zm1492.316,418.611c-4.213.24-8.413.381-12.585.409v398.652c-244.591,34.887-489.122,52.129-733.584,52.028-244.468-.101-488.999-17.551-733.583-52.034v-398.645c-4.159-.028-8.346-.167-12.547-.407,0,149.066-.011,243.993-.034,392.525l-9.743,15.643c5.17.947,9.994,1.818,15.17,2.555,246.853,35.057,493.767,52.793,740.737,52.896,246.987.104,493.905-17.427,740.762-52.896,5.07-.73,10.105-1.631,15.146-2.555l-9.739-15.637v-392.534Z" fill="#212322"/><path d="m926.061,1033.176c53.482-92.022,151.556-148.405,257.694-148.405s204.21,56.383,257.695,148.405c15.904,5.328,24.767,16.587,29.251,16.223,5.104-.485,14.567-7.902,25.679-18.24,15.454-14.379,28.473-30.151,42.652-45.621,26.579-30.17,49.681-56.39,75.136-60.093,18.319-2.669,41.187,2.835,67.165,12.836,34.386,13.236,68.654,30.614,101.86,46.902,62.705,30.758,102.275,50.168,176.712,41.362l61.223-7.237c-15.87,29.895-38.273,53.642-59.546,72.422,23.75,5.297,47.354,9.278,70.783,11.66,55.899,5.686,87.96,3.886,138.194-10.307-20.285,36.971-42.087,66.498-82.276,90.726,36.454,17.276,75.58,35.623,115.004,44.708,64.717,14.913,103.93,6.971,153.469-22.84-11.222,61.654-30.817,92.558-103.14,123.806-34.727,15.004-75.086,23.736-115.228,27.457,19.379,5.28,39.73,8.285,60.708,9.825-42.921,38.556-95.705,61.877-173.836,60.115-33.616,12.304-76.621,21.852-116.156,20.674-34.616,9.967-64.561,16.443-101.576,14.756-24.323,3.525-46.127,5.435-70.956,3.846-16.899-1.082-31.148-3.606-47.421-8.065l9.487,8.39c-8.431-1.35-30.89-6.414-40.923-9.29l3.792,8.195-55.578-17.907c-5.739-1.846-14.698-5.491-24.571-9.884l1.728,5.702c-27.895-12.036-76.423-30.39-101.498-46.769-21.28-10.335-41.127-19.511-58.92-35.573-57.183,75.667-144.047,119.925-238.915,119.925s-181.73-44.258-238.914-119.925c-17.796,16.062-37.64,25.238-58.923,35.573-25.071,16.379-73.599,34.733-101.494,46.769l1.727-5.702c-9.872,4.393-18.834,8.038-24.57,9.884l-55.578,17.907,3.792-8.195c-10.033,2.876-32.492,7.94-40.923,9.29l9.487-8.39c-16.273,4.46-30.525,6.983-47.421,8.065-24.829,1.59-46.635-.321-70.957-3.846-37.014,1.686-66.959-4.789-101.575-14.756-39.535,1.178-82.54-8.371-116.16-20.674-78.128,1.762-130.911-21.559-173.835-60.115,20.98-1.54,41.331-4.545,60.71-9.825-40.142-3.72-80.502-12.453-115.231-27.457-72.319-31.249-91.918-62.152-103.136-123.806,49.539,29.811,88.752,37.753,153.465,22.84,39.427-9.085,78.553-27.432,115.007-44.708-40.19-24.228-61.991-53.755-82.276-90.726,50.234,14.192,82.295,15.993,138.194,10.307,23.426-2.382,47.033-6.363,70.779-11.66-21.27-18.781-43.673-42.527-59.542-72.422l61.223,7.237c74.434,8.806,114.004-10.604,176.712-41.362,33.203-16.288,67.472-33.666,101.856-46.902,25.981-10,48.849-15.505,67.167-12.836,25.456,3.704,48.557,29.923,75.134,60.093,14.182,15.47,27.198,31.242,42.656,45.621,11.112,10.338,20.575,17.755,25.679,18.24,4.481.364,13.343-10.895,29.25-16.223Z" fill="#d5d1c5" fill-rule="evenodd"/><path d="m1415.68,877.841c8.503-4.012,17.003-8.062,25.503-12.11-12.952-21.565-59.319-100.225-72.266-121.864-12.959-21.664-25.906-43.236-38.861-64.871l62.806-92.638-8.012-28.788,16.688,15.992,26.293-38.782c-32.789-1.64-65.58-3.036-98.367-4.047,3.777,6.316,7.556,12.559,11.336,18.806l-75.916,95.889v-70.138c-7.154-4.189-14.303-8.409-21.456-12.667,7.153.069,14.302.139,21.456.208v-19.331c5.126-5.13,10.391-10.225,15.652-15.247-33.464-.456-66.928-.806-100.393-.944,4.321,6.281,8.638,12.563,13.091,18.878v239.763c9.039,5.233,18.079,10.466,27.12,15.738-9.041-.107-18.081-.175-27.12-.21,0,10.642.416,45.906.416,56.515l-9.715,18.129c30,.127,59.999.252,90.002.375l-8.638-16.257c0-11.757-.415-48.293-.415-60.018,7.69-14.586,15.517-29.069,23.343-43.551,2.65,4.283,6.215,10.124,10.388,17.002l21.119-11.146-11.87,26.438c21.28,35.264,50.335,83.796,61.941,102.486-1.756,5.686-3.509,11.338-5.262,17.062,28.537,11.254,138.681,70.259,149.617,79.841-6.668-11.782-62.186-100.994-68.659-112.678-9.981.733-19.971,1.466-29.82,2.165Zm-655.352-306.233v202.098c-8.77,15.021-17.405,29.93-26.043,44.841-8.094-13.749-16.191-27.498-24.153-41.209-.135-34.311-.268-68.7-.268-103.052v-103.052c5.262-6.108,10.659-12.139,16.055-18.281-32.249,3.556-64.364,7.456-96.478,11.65v.485c3.508,6.743,7.149,13.412,10.794,20.081v197.714c-8.771,14.834-17.542,29.518-26.176,44.204-8.096-13.336-16.058-26.636-24.021-39.859-.132-33.527-.267-67.054-.267-100.582s-.135-67.054-.135-100.616c5.262-6.108,10.659-12.175,16.056-18.318-32.25,4.645-64.496,9.513-96.611,14.384,3.641,6.554,7.285,13.148,10.929,19.703v26.934c9.714-1.35,19.429-2.697,29.143-4.046-9.714,6.82-19.429,13.563-29.143,20.304v167.11c9.714,14.048,19.448,28.122,29.143,42.257,9.734,14.183,19.432,28.47,29.147,42.817,23.208-1.573,46.417-3.071,69.626-4.535,8.232-14.009,16.461-28.057,24.693-42.215,8.499,13.072,17.138,26.148,25.774,39.258,23.208-1.199,46.417-2.436,69.625-3.597,9.312-16.034,18.765-32.175,28.067-48.324,9.319-16.175,18.756-32.477,28.2-48.77v-73.462c-8.906.601-17.676,1.161-26.447,1.762,8.771-7.043,17.542-14.123,26.447-21.242v-65.069c0-21.65.135-43.339.27-65.069,4.318-7.94,8.636-15.92,13.089-23.863-29.415,2.662-58.696,5.322-87.976,8.242,3.506,7.118,7.015,14.199,10.659,21.317Zm167.052-19.517c5.261-5.844,10.659-11.65,16.055-17.456-33.599,2.134-67.196,4.494-100.796,6.93,4.453,6.331,8.906,12.697,13.359,19.029v287.024c8.906,5.095,17.813,10.228,26.853,15.323-9.04.336-17.947.674-26.853,1.048v115.105c26.696-33.487,56.667-58.435,80.42-73.551-2.967-5.28-5.935-10.563-8.77-15.844v-303.706c-7.15-3.933-14.303-7.904-21.453-11.839,7.014-.522,14.032-.972,21.185-1.422v-20.64Zm645.121,119.91c21.05-10.451,42.1-20.717,63.285-30.717v-66.68c4.317-6.967,8.635-14.01,13.088-20.978-72.055-7.417-144.11-13.636-216.165-18.617,3.645,7.864,7.288,15.769,11.065,23.712v254.356c8.906,5.882,17.811,11.726,26.717,17.569-6.731-.255-13.465-.532-20.197-.796,10.653,18.007,21.906,37.033,30.569,51.632,55.465,2.026,110.928,4.367,166.393,7.039-3.914-5.731-7.691-11.427-11.47-17.158v-67.577c0-3.597-1.216-6.369-3.645-8.317-35.217-22.441-53.299-33.587-54.244-33.64-1.079-.06-2.158.189-2.968.748-1.755,1.389-2.7,3.449-2.7,6.147v51.993c5.398,5.844,10.93,11.687,16.461,17.568-22.532-1.123-45.067-2.319-67.602-3.37-2.29-.107-4.134-1.268-5.532-3.41-1.435-2.204-2.291-4.607-2.291-7.342v-69.751c7.556.336,11.914.824,19.605,1.274l9.538-22.327c.136,7.455.271,14.834.406,22.252,3.238.227,6.611.412,9.985.635,2.7,5.772,5.532,11.502,8.365,17.233v-104.588c-3.506,4.271-7.015,8.54-10.389,12.849-12.549-.938-25.1-1.796-37.511-2.546v-69.755c-8.232-6.256-16.464-12.585-24.693-18.916,29.82,1.948,59.775,4.384,89.731,6.892-2.024,1.986-4.05,3.896-6.074,5.844,0,22.928.135,45.854.271,68.741Zm285.929-59.599c-10.662-11.65-21.321-23.338-31.847-35.101-57.616-8.654-115.234-16.257-172.714-23.115,3.643,7.868,7.285,15.698,11.064,23.527v28.058c9.715,1.014,19.429,1.986,29.144,3.072-9.715,4.682-19.429,9.477-29.144,14.273v202.208c9.041-5.616,18.214-11.275,27.391-16.854-9.177,10.187-18.35,20.414-27.391,30.642v28.02c-3.779,7.228-7.42,14.46-11.064,21.726,58.019,3.223,116.177,6.782,174.335,10.75,9.985-13.669,20.106-27.306,30.227-40.903v-129.952c-5.803,5.468-11.606,10.938-17.409,16.408,5.803-10.564,11.606-21.166,17.409-31.765v-100.994Zm-70.302,204.197c0,8.65-2.47,15.775-7.288,21.499-4.762,5.662-10.523,8.302-17.136,7.83-9.714-.689-19.432-1.384-29.146-2.096v-230.083c9.714,1.165,19.434,2.341,29.146,3.521,6.615.805,12.367,4.642,17.136,11.35,4.815,6.775,7.288,14.46,7.288,23.115v164.864Zm-704.224-145.347c23.882-17.119,47.767-34.014,71.649-50.945v-69.191c4.317-7.83,8.636-15.621,13.089-23.413-72.732.825-145.46,3.072-218.189,6.593,3.641,7.493,7.286,14.985,11.065,22.477v254.879c9.041,5.283,18.079,10.526,27.12,15.81-9.041.223-18.079.485-27.12.711v32.253c-4.453,6.256-8.77,12.475-13.088,18.731,71.995-1.816,144.409-2.82,217.244-2.996-4.453-7.791-7.154-11.573-11.471-19.403,0-23.077,1.35-50.124,1.35-73.201-23.882-16.93-47.767-33.825-71.649-50.945v70.913c4.048,6.442,8.23,12.925,12.412,19.366l-65.138-.009c-.01-36.652-.026-76.914-.036-113.57-.012-36.296,0-72.596,0-108.934-8.232-5.62-16.462-11.237-24.558-16.707,29.82-1.014,59.776-1.872,89.731-2.697-4.182,6.441-8.364,12.925-12.412,19.366v70.913Z" fill="#212322" fill-rule="evenodd"/><path d="m1110.089,1528.576c5.938-5.177,11.873-10.357,17.811-15.571-37.237-.317-74.474-.921-111.574-1.523,4.856,6.49,9.847,12.947,14.841,19.436v107.081c-1.891,1.985-3.779,3.971-5.667,5.957-17.538-.425-35.079-.922-52.616-1.42v-84.34c-7.959-4.4-15.921-8.834-23.747-13.268,7.827.214,15.789.463,23.747.674v-19.578c5.8-5.072,11.602-10.11,17.402-15.215-37.234-.995-74.472-2.093-111.574-3.443,4.859,6.599,9.849,13.126,14.841,19.649v243.386c9.985,5.639,19.967,11.278,30.087,16.918-10.12-.425-20.103-.851-30.087-1.278v30.789c-3.641,5.494-7.285,10.957-10.791,16.42,33.187,1.454,66.51,2.801,99.836,3.83-3.238-5.073-6.476-10.25-9.714-15.429v-107.364c9.714.249,19.426.57,29.275.853,8.501-8.122,17-16.316,25.635-24.58-3.914,8.229-7.69,16.386-11.467,24.546,3.777.107,7.552.211,11.467.283,1.08,2.093,2.159,4.113,3.374,6.171,0,17.84.132,35.717.268,53.523,9.85,5.424,19.7,10.815,29.681,16.278-9.981-.249-19.831-.39-29.681-.604v30.893c-3.776,5.604-7.42,11.174-11.062,16.707,33.323.708,66.645,1.347,100.107,1.844-3.238-5.074-6.476-10.146-9.578-15.25-.135-44.019-.271-88.069-.271-132.051s-.136-88.032-.136-132.086c-7.959-4.22-15.921-8.547-23.743-12.873,7.688.107,15.514.213,23.337.249v-19.615Zm-322.578-3.405v194.546c-9.715,13.336-19.293,26.635-28.873,39.865-8.902-14.4-17.808-28.763-26.71-43.201-.136-33.269-.271-66.573-.271-99.842s-.135-66.573-.135-99.842c5.938-5.004,11.873-9.969,17.808-15.004-35.616-1.986-71.234-3.937-106.714-6.209v.463c3.911,7.273,7.823,14.542,11.87,21.777v193.409c-9.712,13.019-19.426,26-29.005,39.016-8.906-14.435-17.808-28.801-26.578-43.201-.135-33.055-.271-66.148-.271-99.204s-.135-66.148-.135-99.206c5.938-4.894,11.873-9.825,17.811-14.755-35.752-2.411-71.504-5.07-107.121-7.732,4.047,7.448,8.093,14.828,12.141,22.276v26.885c10.659.815,21.452,1.63,32.242,2.444-10.791,4.614-21.584,9.189-32.242,13.765v166.771c10.659,15.82,21.443,31.645,32.108,47.493,10.649,15.823,21.587,31.744,32.381,47.597,25.632,2.201,51.402,4.259,77.169,6.351,9.041-12.449,18.214-24.899,27.388-37.489,9.444,13.865,19.024,27.699,28.602,41.568,25.635,1.774,51.267,3.511,77.036,4.966,10.389-14.435,20.785-28.936,31.164-43.412,10.398-14.501,20.779-29.05,31.167-43.664v-70.227c-9.849-.428-19.564-.922-29.275-1.419,9.711-5.674,19.426-11.386,29.275-17.204,0-20.748.136-41.461.136-62.212s.135-41.46.268-62.174c4.724-7.058,9.58-14.117,14.435-21.21-32.515-1.209-65.029-2.662-97.542-4.151,3.911,7.414,7.827,14.791,11.873,22.167Zm751.2,101.866c23.341-12.698,46.681-25.43,70.022-38.163v-64.446c4.72-7.448,9.58-14.935,14.435-22.453-79.87,3.83-159.738,6.81-239.471,9.044,4.047,7.165,8.093,14.331,12.275,21.458v241.186c9.85,4.928,19.698,9.825,29.682,14.719-9.985.321-19.832.638-29.682.921v30.504c-4.99,5.995-9.985,11.917-14.841,17.877,80.004-2.765,160.144-6.561,240.283-11.386-4.317-5.038-8.501-10.073-12.682-15.108v-65.298c0-3.477-1.35-6.029-4.046-7.556-39.126-17.238-59.093-25.81-60.038-25.751-1.215.082-2.429.429-3.373,1.029-2.024,1.561-2.969,3.619-2.969,6.209v49.87c6.072,5.035,12.142,10.035,18.212,15.036-24.959,1.419-49.919,2.53-74.875,3.654-2.564.116-4.588-.815-6.209-2.767-1.617-1.95-2.426-4.254-2.426-6.844v-66.47c8.364-.317,16.729-.673,25.228-1.026,2.294-7.345,4.588-14.686,7.014-21.993.135,7.096.271,14.155.406,21.21,3.641-.141,7.42-.318,11.197-.459,2.967,5.283,6.074,10.463,9.173,15.678v-100.235c-3.912,4.541-7.688,9.009-11.468,13.477-13.894.533-27.791,1.102-41.551,1.634v-66.47c-9.173-5.142-18.35-10.321-27.388-15.536,33.052-1.171,66.107-2.411,99.294-3.83-2.29,2.165-4.45,4.258-6.609,6.385.136,21.991.271,43.981.403,65.9Zm315.834,92.148c-23.744-12.132-47.487-24.333-71.233-36.605-.945-.494-1.888-.702-2.967-.601-1.215.11-2.575.767-4.048,1.878-1.491,1.123-2.158,3.122-2.158,5.995v49.3c17,8.55,33.997,17.024,51.131,25.503-34.266,3.297-68.537,6.35-102.668,9.186v-230.049c-7.962-3.616-15.921-7.235-23.746-10.851,7.826-.532,15.784-1.101,23.746-1.633v-19.367c5.8-5.674,11.602-11.347,17.402-17.059-37.102,2.448-74.201,4.683-111.303,6.775,4.856,6.24,9.714,12.449,14.57,18.654v241.791c9.986,4.468,19.967,8.971,29.952,13.477-9.985.674-19.966,1.382-29.952,2.091v30.22c-4.856,5.96-9.714,11.882-14.57,17.877,76.495-5.676,152.994-12.307,229.624-19.97v-79.271c0-3.443-1.35-5.853-3.779-7.342Zm-563.534-84.875c23.34-11.955,46.678-23.942,70.019-36.036v-64.908c4.855-7.377,9.714-14.756,14.57-22.17-79.868,1.384-159.738,1.988-239.606,1.846,4.047,7.305,8.094,14.578,12.276,21.885v241.469c9.849,5.283,19.697,10.604,29.681,15.854-9.985-.038-19.832-.108-29.681-.18v30.541c-4.991,5.781-9.983,11.528-14.841,17.309,80.004.283,160.143-.321,240.282-1.986-4.317-5.252-8.499-10.463-12.681-15.712v-65.796c0-3.513-1.351-6.099-4.048-7.767-38.99-18.762-59.093-28.143-60.036-28.127-1.212.019-2.295.317-3.374.923-1.888,1.488-2.967,3.511-2.967,6.136v50.118c6.07,5.318,12.144,10.567,18.214,15.819-24.961.46-49.92.655-74.878.816-2.429.016-4.544-1.027-6.07-3.015-1.576-2.055-2.429-4.362-2.429-6.952v-66.717c8.364-.034,16.729-.069,25.228-.107,2.295-7.269,4.588-14.542,7.015-21.847,0,7.128.135,14.256.271,21.35,3.644,0,7.42-.034,11.199-.034,3.1,5.355,6.206,10.712,9.305,16.033v-100.729c-3.911,4.431-7.823,8.796-11.599,13.192-13.897.072-27.658.141-41.42.179v-66.683c-9.173-5.46-18.35-10.957-27.523-16.455,33.055-.142,66.242-.283,99.433-.711-2.294,2.13-4.587,4.185-6.746,6.209.135,22.098.271,44.192.406,66.256Z" fill="#212322" fill-rule="evenodd"/><path d="m2126.356,1330.818c75.83-5.477,153.719-29.396,188.227-81.331-83.767,23.881-150.058-2.524-236.039-43.267-17.739-8.409-35.481-16.814-53.871-24.43,40.745-11.934,64.05-27.276,88.952-52.875-55.259,4.154-111.981-2.52-169.618-16.359-18.095-4.347-34.812-9.231-50.392-14.282,33.153-10.586,47.517-20.037,69.158-47.62-91.565,10.828-133.54-16.436-216.12-56.144-53.867-25.898-101.879-48.982-128.956-45.041-16.025,2.332-36.238,25.277-59.498,51.676-28.332,32.16-61.796,70.14-85.145,72.356-3.045.29-12.065-4.226-21.322-8.858-9.337-4.675-18.856-9.432-27.654-11.413-12.713-23.776-28.837-45.453-47.741-64.357-49.286-49.286-117.372-79.772-192.579-79.772s-143.295,30.486-192.581,79.772c-18.903,18.903-35.027,40.581-47.74,64.356-8.798,1.981-18.318,6.739-27.655,11.414-9.259,4.631-18.277,9.148-21.322,8.858-23.35-2.216-56.812-40.196-85.144-72.356-23.26-26.399-43.473-49.344-59.502-51.676-27.075-3.941-75.086,19.143-128.953,45.041-82.581,39.708-124.556,66.972-216.12,56.144,21.642,27.584,36.004,37.035,69.158,47.62-15.582,5.051-32.297,9.935-50.393,14.282-57.637,13.84-114.359,20.514-169.617,16.359,24.902,25.599,48.207,40.941,88.952,52.875-18.39,7.617-36.133,16.021-53.872,24.43-85.983,40.743-152.274,67.148-236.04,43.267,34.511,51.935,112.399,75.853,188.23,81.331,38.202,2.758,77.866-.111,118.928-8.386-42.563,36.535-75.492,45.759-125.545,55.858,73.007,31.185,139.681,27.378,220.823-2.668-18.786,18.553-33.821,26.788-56.872,37.154,43.007,12.146,74.13,9.245,123.347-1.7,12.858-2.86,25.565-6.371,38.128-10.516-13.198,13.943-26.904,22.577-42.457,33.668,26.845,2.306,52.618,2.061,80.455-3.821-4.782,2.561-10.113,4.951-17.345,7.631,28.227,2.899,61.778,2.654,90.01-5.762,5.347-1.41,10.69-3.278,16.035-5.567l-9.082,10.398c23.487-3.763,63.232-17.781,79.899-26.414-.702,3.761-1.975,7.424-3.638,11.023,15.014-4.837,56.567-24.323,70.638-33.945,1.322-.903,2.64-1.832,3.953-2.786l-3.495,11.535c23.062-9.956,41.764-16.843,61.486-33.649,2.261-1.926,4.495-3.941,6.702-6.044l-.31,6.526c24.991-12.135,42.003-26.057,54.62-46.426,12.034,20.946,26.772,40.142,43.739,57.109,49.286,49.288,117.374,79.772,192.581,79.772s143.294-30.483,192.579-79.772c17.223-17.222,31.866-36.442,43.736-57.112,12.617,20.371,29.631,34.294,54.623,46.429l-.31-6.526c2.207,2.103,4.442,4.118,6.702,6.044,19.722,16.806,38.425,23.693,61.486,33.649l-3.497-11.535c1.313.954,2.633,1.883,3.956,2.786,14.071,9.622,55.624,29.108,70.638,33.945-1.665-3.599-2.936-7.262-3.638-11.023,16.665,8.633,56.412,22.651,79.897,26.414l-9.081-10.398c5.346,2.288,10.688,4.157,16.035,5.567,28.233,8.417,61.782,8.662,90.011,5.762-7.233-2.68-12.564-5.069-17.346-7.631,27.837,5.882,53.609,6.127,80.453,3.821-15.551-11.09-29.256-19.724-42.454-33.668,12.564,4.145,25.271,7.656,38.129,10.516,49.214,10.945,80.339,13.846,123.346,1.7-23.052-10.366-38.086-18.601-56.875-37.154,81.146,30.046,147.819,33.853,220.826,2.668-50.055-10.099-82.981-19.323-125.544-55.858,41.062,8.275,80.726,11.144,118.929,8.386Zm-743.733-162.034l-54.624-8.61,12.591-6.786,40.497.206c.701,5.006,1.215,10.072,1.536,15.19Zm-5.377-35.146c1.1,4.464,2.053,8.986,2.846,13.563l-27.755-.139,24.909-13.424Zm-1.671-6.369l-36.609,19.726-14.893-.077,46.845-34.044c1.729,4.717,3.281,9.519,4.656,14.395Zm-48.354,26.052l-9.662,5.206-7.774-1.225,5.56-4.042,11.876.06Zm41.302-46.624l-55.266,40.168-22.154-.111c-2.91-9.008-6.921-17.521-11.877-25.379l13.269-21.493,60.697-23.35c5.925,9.548,11.065,19.632,15.331,30.166Zm-70.593,111.158l-5.408-4.373.471-1.641,9.476,5.534-4.539.48Zm2.622,10.336l-13.925-.41c.36-.798.711-1.599,1.053-2.407l8.308-.876,4.565,3.693Zm-7.001-75.038l10.975.056-3.691,2.684-6.869-1.083-.414-1.656Zm8.923,9.465l5.799.913-12.285,6.619c-.087-.872-.186-1.741-.292-2.607l6.778-4.925Zm-38.04,107.446l-2.497-6.488,1.225-1.188,5.442,9.534-4.171-1.858Zm9.532,11.253l5.887,10.315-9.34-5.765-2.825-7.346,6.278,2.795Zm-9.274-179.268l9.532-5.44-1.855,4.169-6.488,2.496-1.188-1.225Zm12.459,3.733l5.48-2.107-7.332,11.88c-.511-.709-1.03-1.412-1.557-2.108l3.41-7.664Zm3.676-8.258l2.795-6.278,10.315-5.885-5.764,9.338-7.345,2.825Zm68.838-26.48l-51.629,19.862,7.512-12.172,35.17-20.068c3.137,4.004,6.118,8.136,8.947,12.379Zm-13.029-17.406l-24.08,13.743,14.839-24.045c3.198,3.325,6.278,6.762,9.241,10.302Zm-13.883-14.965l-21.809,35.333-12.936,7.381,23.522-52.849c3.869,3.237,7.612,6.619,11.223,10.135Zm-83.66-48.705c4.46,1.287,8.859,2.717,13.184,4.301l-14.014,23.995.83-28.295Zm-1.224,41.633l20.442-34.996c4.738,1.913,9.384,4.003,13.932,6.261l-34.794,43.03.419-14.296Zm-.73,24.839l40.903-50.583c9.986,5.373,19.462,11.571,28.335,18.507l-27.765,62.386-19.264,10.993c-6.924-6.256-14.63-11.661-22.95-16.06l.742-25.244Zm24.398,223.885l-11.878-7.332c.709-.511,1.412-1.03,2.108-1.557l7.663,3.409,2.108,5.479Zm-28.797-292.076l-1.221,41.559-7.511,12.862-6.058-57.562c4.996.864,9.929,1.912,14.79,3.141Zm-6.884,71.985l-.72-6.834,5.991-10.255-.322,10.97-4.949,6.119Zm4.636,4.426l-.409,13.927c-.798-.36-1.6-.712-2.408-1.053l-.874-8.309,3.691-4.564Zm-46.734-82.484c9.382,0,18.608.663,27.645,1.918l7.149,67.917-11.18,19.137c-7.616-1.623-15.514-2.484-23.614-2.484-1.437,0-2.865.036-4.288.089l-11.99-22.255,10.126-64.219c2.044-.062,4.093-.103,6.152-.103Zm18.837,317.994l-.915,5.799-6.619-12.285c.872-.087,1.741-.186,2.608-.292l4.926,6.778Zm-30.141-230.944c-.872.087-1.741.186-2.607.292l-4.926-6.78.913-5.799,6.621,12.287Zm-16.557-85.102c5.007-.7,10.072-1.215,15.191-1.536l-8.61,54.623-6.786-12.589.205-40.499Zm-.272,53.866l5.206,9.662-1.225,7.774-4.041-5.558.06-11.878Zm-.114,22.695l2.684,3.692-1.083,6.868-1.656.415.055-10.975Zm-2.142,230.004l-5.535,9.476-.48-4.539,4.372-5.408,1.642.471Zm-3.865-305.57l-.139,27.758-13.424-24.912c4.464-1.1,8.986-2.053,13.563-2.846Zm-19.932,4.517l19.726,36.61-.077,14.891-34.045-46.845c4.717-1.729,9.519-3.282,14.396-4.657Zm-20.571,7.052l40.168,55.269-.111,22.154c-9.008,2.91-17.52,6.92-25.378,11.875l-21.494-13.268-23.35-60.699c9.548-5.925,19.633-11.065,30.166-15.332Zm32.657,305.985l.721,6.834-5.992,10.255.324-10.97,4.947-6.118Zm-4.636-4.423l.409-13.928c.798.36,1.6.712,2.408,1.053l.875,8.308-3.692,4.567Zm-19.164-208.336c-.709.511-1.412,1.03-2.109,1.557l-7.664-3.41-2.107-5.48,11.88,7.332Zm-32.973,169.319l7.332-11.878c.511.709,1.03,1.412,1.557,2.108l-3.409,7.662-5.48,2.108Zm1.804,6.151l-2.793,6.278-10.314,5.887,5.764-9.34,7.344-2.825Zm8.457-3.254l6.492-2.497,1.185,1.226-9.532,5.442,1.854-4.171Zm3.766-171.141l4.169,1.855,2.496,6.492-1.225,1.186-5.44-9.532Zm-5.364-9.395l-5.885-10.315,9.338,5.764,2.825,7.344-6.278-2.793Zm-20.202-66.046l19.862,51.63-12.172-7.51-20.07-35.17c4.005-3.138,8.137-6.119,12.38-8.949Zm-17.406,13.029l13.743,24.08-24.044-14.839c3.325-3.198,6.762-6.278,10.301-9.241Zm-14.964,13.883l35.332,21.809,7.381,12.936-52.847-23.522c3.236-3.869,6.618-7.611,10.135-11.223Zm-14.309,16.375l62.386,27.765,10.993,19.264c-6.257,6.925-11.662,14.631-16.062,22.952l-25.241-.744-50.582-40.902c5.373-9.986,11.571-19.462,18.507-28.335Zm40.012,148.179l6.868,1.084.415,1.656-10.975-.056,3.692-2.684Zm-7.439-7.637l12.285-6.62c.087.873.186,1.741.292,2.608l-6.778,4.926-5.799-.914Zm5.803-53.846l4.539-.48,5.407,4.375-.467,1.64-9.479-5.535Zm6.483-7.121l-4.565-3.692,13.926.409c-.36.798-.712,1.6-1.053,2.408l-8.308.875Zm-8.991.944l-6.834.72-10.254-5.991,10.97.324,6.118,4.947Zm-57.368-46.385l43.03,34.792-14.296-.419-34.996-20.44c1.913-4.738,4.003-9.384,6.261-13.932Zm-8.597,19.964l23.994,14.015-28.295-.831c1.287-4.46,2.717-8.859,4.301-13.184Zm-6.02,19.538l41.559,1.221,12.863,7.512-57.562,6.057c.864-4.996,1.912-9.929,3.141-14.79Zm-6.074,48.983c0-9.383.664-18.609,1.918-27.646l67.917-7.149,19.135,11.178c-1.623,7.617-2.485,15.516-2.485,23.617,0,1.436.036,2.864.089,4.287l-22.252,11.988-64.219-10.122c-.062-2.045-.103-4.094-.103-6.153Zm73.251,24.15l-5.56,4.041-11.876-.06,9.662-5.207,7.774,1.225Zm-72.838-11.482l54.624,8.613-12.589,6.783-40.499-.204c-.701-5.007-1.215-10.073-1.536-15.192Zm5.377,35.147c-1.1-4.464-2.053-8.986-2.846-13.563l27.758.141-24.912,13.422Zm1.671,6.369l36.61-19.724,14.891.074-46.845,34.045c-1.729-4.717-3.281-9.519-4.656-14.396Zm7.052,20.572l55.267-40.168,22.154.113c2.91,9.009,6.921,17.521,11.877,25.38l-13.267,21.493-60.698,23.35c-5.926-9.549-11.066-19.634-15.332-30.168Zm18.86,35.656l51.629-19.861-7.511,12.17-35.171,20.07c-3.137-4.005-6.118-8.137-8.947-12.379Zm13.029,17.405l24.08-13.742-14.84,24.043c-3.197-3.324-6.278-6.761-9.24-10.301Zm13.883,14.964l21.808-35.334,12.937-7.381-23.522,52.849c-3.869-3.236-7.611-6.618-11.222-10.134Zm83.659,48.704c-4.46-1.287-8.858-2.717-13.183-4.301l14.014-23.995-.83,28.296Zm1.224-41.632l-20.44,34.996c-4.738-1.913-9.384-4.003-13.933-6.262l34.792-43.031-.419,14.296Zm.73-24.84l-40.901,50.584c-9.987-5.373-19.463-11.571-28.336-18.507l27.765-62.385,19.264-10.993c6.925,6.256,14.631,11.662,22.952,16.061l-.744,25.24Zm4.4,68.191l1.221-41.558,7.513-12.86,6.057,57.559c-4.996-.864-9.929-1.912-14.79-3.141Zm48.983,6.074c-9.383,0-18.609-.664-27.647-1.918l-7.148-67.916,11.177-19.135c7.617,1.623,15.516,2.485,23.618,2.485,1.436,0,2.864-.036,4.288-.089l11.988,22.251-10.123,64.22c-2.044.062-4.094.104-6.153.104Zm27.861-1.948c-5.007.701-10.074,1.215-15.193,1.536l8.613-54.624,6.782,12.591-.203,40.497Zm.271-53.866l-5.207-9.662,1.226-7.772,4.041,5.558-.059,11.876Zm.113-22.696l-2.685-3.691,1.084-6.869,1.656-.414-.055,10.975Zm2.142-230.001l5.534-9.479.479,4.538-4.372,5.408-1.641-.467Zm3.865,305.567l.14-27.755,13.422,24.91c-4.464,1.099-8.985,2.053-13.562,2.846Zm19.931-4.516l-19.723-36.609.074-14.893,34.045,46.845c-4.717,1.729-9.519,3.281-14.396,4.656Zm20.573-7.052l-40.168-55.267.113-22.154c9.008-2.91,17.52-6.92,25.378-11.876l21.495,13.268,23.349,60.697c-9.549,5.925-19.633,11.065-30.167,15.332Zm35.656-18.86l-19.862-51.629,12.17,7.512,20.071,35.17c-4.005,3.137-8.137,6.118-12.379,8.947Zm17.405-13.028l-13.743-24.08,24.044,14.84c-3.325,3.197-6.762,6.278-10.301,9.24Zm14.964-13.883l-35.335-21.809-7.381-12.936,52.85,23.523c-3.223,3.851-6.603,7.594-10.135,11.221Zm14.316-16.371l-62.395-27.769-10.991-19.264c6.256-6.924,11.661-14.63,16.06-22.95l25.241.742,50.59,40.905c-5.327,9.907-11.507,19.389-18.504,28.336Zm-35.879-80.524l6.834-.72,10.255,5.991-10.97-.322-6.118-4.949Zm57.372,46.392l-43.035-34.798,14.296.419,34.991,20.439c-1.905,4.723-3.988,9.374-6.252,13.94Zm8.577-19.982l-23.979-14.004,28.279.83c-1.281,4.444-2.714,8.837-4.3,13.174Zm6.029-19.527l-41.552-1.221-12.86-7.51,57.559-6.058c-.862,4.979-1.914,9.911-3.147,14.79Zm4.156-21.335l-67.91,7.148-19.135-11.177c1.623-7.617,2.484-15.515,2.484-23.616,0-1.437-.036-2.865-.089-4.289l22.252-11.988,64.22,10.125c.062,2.044.103,4.093.103,6.152,0,9.315-.658,18.547-1.924,27.646Z" fill="#212322" fill-rule="evenodd"/><path d="m1187.928,921.98c8.423.136,16.749.663,24.956,1.584,1.725,4.023,1.776,12.117,1.926,17.749,1.568-5.431,3.685-13.245,6.382-16.686,8.706,1.257,17.269,2.949,25.674,5.044,1.199,4.201.178,12.26-.44,17.894,2.295-5.178,5.442-12.698,8.585-15.732,8.04,2.288,15.921,4.961,23.621,7.988.66,4.314-1.39,12.195-2.728,17.712,2.936-4.836,7.012-11.878,10.519-14.491,8.038,3.467,15.863,7.33,23.457,11.561.062,4.372-3.004,11.878-5.056,17.151,3.546-4.393,8.511-10.813,12.327-12.95,7.158,4.296,14.09,8.927,20.777,13.874-.514,4.345-4.506,11.378-7.211,16.334,4.073-3.893,9.805-9.611,13.863-11.253,6.858,5.424,13.429,11.19,19.703,17.267-1.097,4.241-5.975,10.665-9.309,15.209,4.544-3.314,10.97-8.206,15.21-9.308,5.801,5.989,11.315,12.256,16.521,18.779-1.627,4.064-7.295,9.817-11.188,13.9,4.947-2.71,11.969-6.751,16.313-7.283,5.216,6.98,10.079,14.238,14.577,21.739-2.133,3.816-8.539,8.782-12.953,12.323,5.269-2.033,12.779-5.111,17.154-5.053,4.037,7.251,7.739,14.712,11.081,22.366-2.593,3.516-9.601,7.628-14.439,10.578,5.501-1.343,13.372-3.441,17.696-2.806,3.208,8.055,6.03,16.304,8.432,24.731-3.029,3.147-10.535,6.296-15.732,8.582,5.623-.6,13.689-1.632,17.895-.435,2.001,8.02,3.641,16.186,4.877,24.483-3.425,2.716-11.238,4.87-16.667,6.465,5.635.125,13.731.137,17.76,1.844,1.003,8.594,1.578,17.317,1.719,26.143-3.775,2.223-11.765,3.314-17.335,4.168,5.556.871,13.557,1.955,17.335,4.173-.137,8.423-.667,16.749-1.584,24.96-4.02,1.728-12.103,1.788-17.749,1.922,5.414,1.579,13.242,3.69,16.688,6.385-1.257,8.706-2.948,17.267-5.046,25.671-4.201,1.2-12.26.178-17.893-.44,5.178,2.295,12.698,5.442,15.729,8.585-2.286,8.042-4.958,15.921-7.985,23.621-4.317.66-12.198-1.39-17.714-2.728,4.836,2.936,11.878,7.015,14.49,10.519-3.466,8.038-7.329,15.863-11.56,23.46-4.372.06-11.878-3.007-17.152-5.055,4.394,3.546,10.813,8.508,12.951,12.325-4.294,7.158-8.928,14.09-13.875,20.778-4.344-.514-11.377-4.506-16.333-7.211,3.895,4.074,9.61,9.805,11.252,13.863-5.422,6.858-11.19,13.429-17.265,19.703-4.24-1.097-10.666-5.975-15.21-9.309,3.314,4.544,8.207,10.973,9.307,15.211-5.986,5.801-12.253,11.315-18.779,16.521-4.064-1.625-9.817-7.295-13.899-11.188,2.709,4.947,6.753,11.971,7.283,16.314-6.98,5.212-14.238,10.078-21.737,14.576-3.817-2.133-8.784-8.539-12.323-12.953,2.031,5.268,5.109,12.778,5.051,17.153-7.248,4.037-14.711,7.739-22.367,11.082-3.516-2.594-7.628-9.6-10.579-14.439,1.343,5.5,3.442,13.371,2.807,17.695-8.052,3.207-16.304,6.031-24.731,8.432-3.145-3.029-6.297-10.535-8.582-15.732.6,5.623,1.632,13.689.437,17.895-8.022,2.001-16.188,3.638-24.485,4.877-2.716-3.425-4.871-11.238-6.466-16.667-.122,5.635-.134,13.731-1.843,17.76-8.592.998-17.314,1.58-26.142,1.719-2.218-3.779-3.302-11.778-4.171-17.335-.857,5.572-1.95,13.559-4.171,17.335-8.425-.132-16.751-.67-24.96-1.584-1.73-4.02-1.788-12.103-1.922-17.749-1.582,5.414-3.691,13.242-6.387,16.688-8.705-1.255-17.264-2.948-25.669-5.043-1.194-4.206-.162-12.272.438-17.895-2.283,5.197-5.435,12.702-8.582,15.732-8.041-2.29-15.92-4.961-23.622-7.988-.655-4.319,1.406-12.204,2.726-17.714-2.927,4.855-7.01,11.883-10.515,14.493-8.04-3.467-15.866-7.329-23.459-11.56-.058-4.375,3.019-11.886,5.053-17.153-3.541,4.413-8.506,10.819-12.325,12.953-7.158-4.296-14.09-8.931-20.778-13.875.519-4.346,4.523-11.382,7.21-16.335-4.069,3.913-9.801,9.617-13.858,11.255-6.859-5.424-13.435-11.188-19.706-17.267,1.102-4.238,5.993-10.666,9.307-15.211-4.543,3.335-10.967,8.212-15.208,9.309-5.801-5.991-11.315-12.255-16.521-18.779,1.631-4.065,7.314-9.817,11.185-13.902-4.948,2.73-11.968,6.76-16.31,7.286-5.213-6.98-10.078-14.236-14.576-21.737,2.137-3.817,8.557-8.779,12.95-12.325-5.273,2.049-12.779,5.115-17.151,5.055-4.037-7.252-7.74-14.713-11.084-22.369,2.598-3.513,9.62-7.624,14.439-10.582-5.507,1.364-13.372,3.448-17.693,2.81-3.208-8.055-6.033-16.304-8.432-24.731,3.034-3.143,10.551-6.29,15.732-8.585-5.635.618-13.693,1.64-17.894.44-2.003-8.022-3.64-16.188-4.88-24.483,3.43-2.717,11.256-4.863,16.667-6.468-5.646-.111-13.73-.131-17.758-1.843-1-8.595-1.577-17.316-1.721-26.144,3.779-2.218,11.778-3.3,17.334-4.171-5.569-.857-13.559-1.949-17.334-4.171.136-8.423.663-16.748,1.584-24.958,4.023-1.725,12.117-1.774,17.749-1.924-5.431-1.57-13.245-3.685-16.686-6.386,1.257-8.705,2.948-17.267,5.044-25.669,4.203-1.197,12.272-.164,17.894.435-5.197-2.286-12.705-5.435-15.732-8.582,2.286-8.041,4.958-15.921,7.985-23.621,4.319-.656,12.205,1.408,17.714,2.725-4.854-2.927-11.882-7.008-14.492-10.514,3.47-8.038,7.332-15.867,11.561-23.46,4.374-.058,11.887,3.02,17.153,5.053-4.412-3.541-10.819-8.506-12.952-12.323,4.298-7.158,8.927-14.092,13.876-20.781,4.347.519,11.38,4.523,16.334,7.21-3.914-4.069-9.616-9.801-11.256-13.858,5.424-6.859,11.19-13.434,17.268-19.706,4.24,1.102,10.667,5.993,15.21,9.31-3.332-4.546-8.211-10.97-9.307-15.211,5.989-5.798,12.253-11.315,18.777-16.521,4.067,1.631,9.817,7.314,13.903,11.185-2.73-4.949-6.758-11.968-7.286-16.31,6.982-5.213,14.238-10.078,21.739-14.578,3.814,2.137,8.779,8.56,12.325,12.952-2.052-5.273-5.118-12.778-5.055-17.151,7.251-4.037,14.71-7.74,22.366-11.084,3.516,2.599,7.623,9.62,10.581,14.439-1.362-5.507-3.449-13.372-2.809-17.693,8.055-3.207,16.304-6.033,24.731-8.432,3.145,3.034,6.29,10.554,8.585,15.732-.618-5.634-1.637-13.691-.438-17.894,8.02-2.003,16.186-3.641,24.483-4.88,2.714,3.43,4.861,11.258,6.468,16.667.109-5.646.13-13.73,1.841-17.758,8.594-1,17.318-1.577,26.146-1.721,2.223,3.775,3.314,11.764,4.171,17.334.869-5.555,1.953-13.557,4.171-17.334h0Zm186.906,379.714c24.275-36.403,38.434-80.129,38.434-127.166,0-126.756-102.754-229.513-229.51-229.513s-229.512,102.757-229.512,229.513c0,47.037,14.159,90.762,38.436,127.166,39.972,63.387,110.6,105.506,191.076,105.506s151.102-42.119,191.076-105.506h0Zm-191.076-332.998c-117.506,0-212.76,95.253-212.76,212.759s95.253,212.76,212.76,212.76,212.76-95.256,212.76-212.76-95.256-212.759-212.76-212.759h0Zm0,6.252c-114.053,0-206.507,92.454-206.507,206.507s92.454,206.507,206.507,206.507,206.507-92.455,206.507-206.507-92.455-206.507-206.507-206.507Z" fill="#998543" fill-rule="evenodd"/><path d="m821.135,1188.766c-9.109,23.934-19.266,43.316-30.298,58.916-.38,13.374-3.543,22.945-7.455,31.502,20.82-13.965,41.158-36.891,56.511-80.077,4.993-14.043,4.174-18.749,1.443-15.632-11.401,24.666-23.07,43.309-35.111,53.867,10.975-18.86,29.91-50.238,14.91-48.575Zm20.564,40.451c-3.431,19.706-9.956,34.001-18.517,44.728,33.727-8.65,56.773-46.892,73.825-101.719-30.781,12.585-31.26,45.85-46.891,68.777,11.623-26.213,4.488-37.515,34.869-78.635-17.763,12.893-32.58,34.078-43.286,66.849Zm-108.279,22.739c-.679,12.244-4.771,22.867-11.542,32.223,41.584-11.253,70.72-44.213,87.291-99.074-4.926-7.397-12.559-2.07-21.162,15.15-14.754,29.536-31.615,50.043-50.365,66.034,20.232-24.154,33.344-46.53,33.052-65.552-10.963,18.242-23.102,35.543-37.273,51.219Zm15.694-85.362c6.073-8.025,10.324-15.069,10.581-22.603-31.744,22.124-41.843,60.599-84.406,96.671-7.894,21.625-20.643,36.648-36.551,47.373,51.31-3.11,90.012-37.128,121.436-88.975-6.569,2.948-13.064,4.664-19.476,5.049,12.374-8.069,22.256-21.67,28.856-42.563-6.27,2.461-13.648,8.571-22.124,18.756-21.919,26.343-24.048,56.592-65.647,79.116,32.267-22.657,44.267-62.343,67.331-92.824Zm-317.94,98.908c8.716-13.186-5.737-15.542-22.124-11.063-80.395,21.681-157.188,30.745-229.889,25.49,80.288-4.009,155.692-19.877,227.004-45.69-14.539-2.973-27.301-9.207-37.994-19.237,23.621.269,46.44-1.542,66.852-9.618-13.889-8.981-34.843-12.663-69.255-6.253-46.119,10.202-92.717,42.769-147.011,51.53l.068-.033c-38.786,13.96-80.761,22.892-130.668,19.319,49.886,29.483,103.442,45.391,160.454,48.503,73.143-2.983,164.9-26.227,182.563-52.95Zm92.86-80.019c-35.11,12.985-53.144,32.223-105.327,38.955,90.798,41.324,239.772-4.771,292.895-95.707-7.529,1.593-16.23,6.466-27.895,15.391-52.713,40.324-124.713,58.158-195.263,73.584,66.347-17.367,128.275-44.516,185.643-81.761-48.901,23.211-98.586,41.725-150.053,49.538Zm379.946-6.283c-3.234,10.862-7.265,21.123-11.783,31.023-.996,16.234-4.453,28.49-9.617,37.994,12.053-3.24,22.92-10.544,32.425-22.498-1.068-6.532-1.902-13.142-2.496-19.822-4.559,9.327-10.026,16.48-16.224,21.88,7.902-11.818,13.141-25.869,15.167-42.612-.016-1.236-.047-2.469-.047-3.71,0-3.751.097-7.479.247-11.193-2.817.047-5.402,2.713-7.671,8.937Zm-332.836,77.378c28.508-11.568,54.395-27.309,77.451-47.533-19.786,8.937-40.089,16.151-60.84,21.883-16.646,16.869-36.815,29.866-59.876,39.678,73.546-2.641,128.031-18.46,157.989-51.22,21.783-23.823,38.316-55.31,57.472-75.749-10.259,2.323-20.129,7.934-29.818,16.593-34.532,30.857-42.015,63.512-142.379,96.349Zm14.895-170.468c-20.694,6.216-41.129,9.294-61.184,7.814-56.058,20.778-127.451,45.69-236.624,49.056,27.461,18.393,61.354,30.021,100.998,35.59,153.356,12.547,268.217-29.978,328.587-92.942-13.86-10.475-29.741-14.696-50.018-5.289-104.13,49.583-197.269,65.235-286.642,69.255,90.762-10.569,171.993-30.951,240.953-63.966-3.284-4.207-10.947-6.227-36.07.482Zm1059.597,198.07c-6.774-9.356-10.864-19.979-11.545-32.223-14.169-15.675-26.308-32.977-37.271-51.219-.292,19.022,12.821,41.398,33.052,65.552-18.749-15.991-35.611-36.498-50.365-66.034-8.603-17.22-16.236-22.547-21.162-15.15,16.572,54.862,45.708,87.821,87.292,99.074Zm-101.305-10.234c-8.564-10.727-15.086-25.023-18.518-44.728-10.707-32.771-25.523-53.957-43.285-66.849,30.379,41.12,23.246,52.422,34.869,78.635-15.632-22.927-16.112-56.192-46.894-68.777,17.053,54.827,40.099,93.07,73.827,101.719Zm39.8,5.238c-3.912-8.557-7.075-18.128-7.455-31.502-11.033-15.6-21.192-34.981-30.298-58.916-15-1.663,3.934,29.715,14.907,48.575-12.037-10.558-23.71-29.201-35.108-53.867-2.73-3.117-3.55,1.589,1.443,15.632,15.354,43.185,35.692,66.112,56.511,80.077Zm-129.129-73.29c-.594,6.654-1.43,13.262-2.502,19.815,9.506,11.96,20.377,19.266,32.434,22.508-5.164-9.504-8.624-21.759-9.618-37.994-4.519-9.9-8.551-20.162-11.786-31.023-2.268-6.225-4.853-8.89-7.669-8.937.15,3.714.247,7.442.247,11.193,0,1.24-.029,2.477-.046,3.715,2.026,16.741,7.264,30.79,15.164,42.607-6.197-5.401-11.664-12.555-16.225-21.884Zm493.804,18.544c-52.183-6.732-70.219-25.97-105.328-38.955-51.467-7.813-101.154-26.327-150.056-49.538,57.371,37.245,119.299,64.394,185.646,81.761-70.55-15.426-142.55-33.26-195.263-73.584-11.667-8.926-20.366-13.798-27.894-15.391,53.123,90.936,202.097,137.031,292.895,95.707Zm-1420.48,67.035c-62.698,35.502-122.143,62.848-182.278,77.433,59.093-19.323,115.968-47.528,169.291-89.936-9.963,1.475-19.534-.194-28.856-3.849,11.367-1.214,22.501-3.115,31.741-9.136,9.403-6.126,15.069-12.652,4.331-17.797-16.192-6.17-67.387,22.352-80.318,35.589-21.019,21.519-43.173,33.617-64.759,40.459-23.697,20.771-47.046,41.618-98.868,56.331,32.239,6.136,64.475,6.743,96.712,2.341,63.922-13.774,121.295-40.645,169.836-85.181,8.094-7.483-.127-15.711-16.831-6.253Zm1550.958-148.493c-109.174-3.367-180.567-28.278-236.624-49.056-20.055,1.48-40.49-1.598-61.185-7.814-25.123-6.709-32.786-4.69-36.069-.482,68.959,33.015,150.19,53.397,240.953,63.966-89.373-4.02-182.512-19.673-286.642-69.255-20.278-9.407-36.157-5.185-50.017,5.289,60.369,62.964,175.229,105.489,328.586,92.942,39.645-5.569,73.537-17.197,100.999-35.59Zm-299.525,87.947c-20.75-5.732-41.053-12.946-60.84-21.883,23.057,20.224,48.941,35.965,77.451,47.533-100.364-32.837-107.849-65.492-142.378-96.349-9.689-8.659-19.559-14.27-29.819-16.593,19.157,20.439,35.687,51.926,57.472,75.749,29.958,32.76,84.443,48.579,157.99,51.22-23.062-9.812-43.23-22.809-59.876-39.678Zm-87.535,9.736c-42.563-36.072-52.665-74.547-84.406-96.671.257,7.533,4.509,14.578,10.581,22.603,23.064,30.481,35.065,70.168,67.331,92.824-41.602-22.524-43.728-52.774-65.648-79.116-8.476-10.185-15.854-16.295-22.123-18.756,6.6,20.893,16.482,34.494,28.855,42.563-6.413-.385-12.906-2.101-19.478-5.049,31.426,51.847,70.129,85.865,121.439,88.975-15.91-10.725-28.658-25.747-36.551-47.373Zm-196.909-113.674c27.98-11.211,42.718-25.178,39.918-42.804,30.358-7.848,64.223-32.87,100.998-72.141,26.049-6.813,42.482,19.319,99.072,16.353-3.649,5.669-9.013,8.599-15.871,9.138,69.349,52.667,137.883,55.989,205.948,30.419-88.493,5.934-254.09-113.349-305.879-105.809-26.959,3.926-96.23,119.429-145.246,124.084-9.539.906-27.198-10.374-42.194-16.829,5.714,12.641,10.475,25.803,14.226,39.384,14.131,5.869,30.702,15.327,49.026,18.206Zm75.987,198.631c7.167,18.017,19.442,32.322,33.668,45.21-28.432-20.935-51.085-47.04-67.333-78.875,7.114,37.748,28.397,73.051,72.699,104.387,17.508,9.697,35.316,16.572,53.413,20.776-5.52-6.83-11.781-14.645-19.237-24.045-28.923-17.399-51.989-41.387-73.209-67.452Zm145.804,77.238c-7.36-2.208-14.518-5.776-21.239-12.311-31.174-15.849-59.883-37.693-86.569-64.446,25.312,35.923,59.812,60.908,98.593,80.798-35.15-13.661-63.167-33.716-86.222-53.783-11.929-10.376-28.423-33.276-39.786-38.078,23.156,39.893,57.363,75.75,113.863,103.458,19.629,6.468,38.385,8.858,56.495,8.24-12.885-6.395-24.567-14.395-35.134-23.879h-.002Zm-235.258-122.928c-3.842-9.789-7.864-11.69-12.023-7.695.982,14.358,7.024,26.687,14.428,38.475-10.84-9.055-19.298-21.083-25.009-36.551-.646,34.981,14.509,65.789,47.846,91.796,4.984,3.015,10.072,5.636,15.264,7.878-3.207-10.581-6.415-21.162-9.62-31.743-13.546-17.765-24.392-37.982-30.884-62.16Zm24.527-10.099c2.552,21.672,8.83,41.012,21.644,56.27-16.725-12.132-28.008-29.709-37.033-49.538,10.113,36.601,26.616,70.524,56.613,98.787,13.844,9.889,28.244,16.799,43.047,21.567-7.054-9.618-14.111-19.237-21.162-28.857-31.317-28.935-50.807-62.635-63.109-98.23Zm266.633,107.641h-.002c-31.995-19.185-61.988-39.71-84.352-65.319-8.605-6.466-16.69-7.482-22.123,0-9.467,13.043,69.723,63.344,108.212,89.936-50.912-23.835-98.504-52.793-142.36-87.53,26.973,44.661,67.794,76.539,119.771,98.118,18.344,5.672,37.793,9.048,58.762,9.249-14.793-13.858-27.667-28.571-37.908-44.454Zm107.382-19.752c-43.892-22.072-85.691-45.249-112.259-75.024-12.695-13.21-24.782-12.921-29.942-5.169.123,6.373,9.813,11.579,23.087,16.35-3.993,1.844-8.354,2.011-12.985.964,37.722,43.991,88.102,71.779,141.879,95.227-46.774-17.697-93.275-35.849-130.336-69.737.201,31.61,34.539,58.836,104.628,81.469,21.808,3.861,44.031,5.79,66.692,5.7-20.532-13.659-37.192-30.463-50.763-49.779Zm268.301-107.09l.067.033c-54.295-8.761-100.892-41.329-147.01-51.53-34.414-6.41-55.368-2.728-69.255,6.253,20.41,8.075,43.23,9.886,66.852,9.618-10.693,10.03-23.455,16.264-37.994,19.237,71.31,25.812,146.717,41.681,227.005,45.69-72.702,5.255-149.495-3.81-229.89-25.49-16.387-4.479-30.84-2.123-22.126,11.063,17.666,26.723,109.421,49.967,182.566,52.95,57.011-3.113,110.565-19.02,160.451-48.503-49.904,3.573-91.879-5.36-130.664-19.319Zm-223.412,33.146c-12.932-13.237-64.126-41.759-80.318-35.589-10.739,5.145-5.072,11.671,4.328,17.797,9.242,6.021,20.375,7.922,31.743,9.136-9.323,3.654-18.893,5.323-28.857,3.849,53.324,42.408,110.197,70.612,169.293,89.936-60.135-14.585-119.584-41.931-182.278-77.433-16.705-9.458-24.926-1.229-16.831,6.253,48.54,44.536,105.91,71.407,169.835,85.181,32.236,4.403,64.474,3.796,96.71-2.341-51.82-14.713-75.168-35.56-98.866-56.331-21.587-6.841-43.74-18.939-64.758-40.459Zm-1032.02-197.548c-49.015-4.655-118.287-120.158-145.245-124.084-51.789-7.54-217.386,111.743-305.88,105.809,68.065,25.57,136.601,22.249,205.949-30.419-6.857-.539-12.22-3.469-15.871-9.138,56.591,2.966,73.021-23.166,99.072-16.353,36.774,39.271,70.639,64.293,100.999,72.141-2.802,17.626,11.939,31.593,39.918,42.804,18.324-2.88,34.895-12.337,49.026-18.207,3.751-13.581,8.513-26.743,14.227-39.384-14.996,6.455-32.656,17.735-42.196,16.83Zm-53.762,239.873c12.814-15.259,19.09-34.598,21.642-56.27-12.3,35.595-31.79,69.295-63.107,98.23-7.055,9.62-14.108,19.24-21.162,28.857,14.803-4.768,29.202-11.679,43.044-21.567,30-28.263,46.503-62.185,56.616-98.787-9.028,19.828-20.308,37.405-37.033,49.538Zm-53.864-11.063c-11.364,4.801-27.86,27.702-39.786,38.078-23.057,20.067-51.072,40.122-86.222,53.783,38.779-19.89,73.281-44.874,98.592-80.798-26.685,26.753-55.395,48.596-86.569,64.446-6.72,6.535-13.879,10.104-21.238,12.311h-.002c-10.569,9.484-22.248,17.484-35.133,23.879,18.11.618,36.865-1.772,56.495-8.24,56.5-27.709,90.707-63.565,113.863-103.458Zm44.247-23.084c-16.248,31.835-38.902,57.94-67.334,78.875,14.227-12.888,26.501-27.193,33.668-45.21-21.219,26.065-44.286,50.052-73.208,67.452-7.457,9.4-13.717,17.215-19.238,24.045,18.096-4.203,35.905-11.079,53.412-20.776,44.303-31.335,65.583-66.639,72.7-104.387Zm-94.746,22.605c-43.856,34.737-91.451,63.695-142.361,87.53,38.49-26.593,117.68-76.894,108.213-89.936-5.433-7.482-13.518-6.466-22.124,0-22.364,25.609-52.356,46.134-84.352,65.319h-.003c-10.24,15.884-23.114,30.597-37.908,44.454,20.97-.201,40.416-3.577,58.76-9.249,51.979-21.579,92.8-53.457,119.774-98.118Zm-127.451,5.77c-37.061,33.888-83.563,52.04-130.336,69.737,53.776-23.448,104.155-51.236,141.878-95.227-4.632,1.047-8.995.88-12.985-.964,13.274-4.77,22.964-9.976,23.084-16.35-5.159-7.751-17.243-8.041-29.939,5.169-26.567,29.775-68.366,52.952-112.258,75.024-13.571,19.317-30.232,36.12-50.764,49.779,22.661.09,44.883-1.839,66.689-5.7,70.092-22.633,104.426-49.859,104.631-81.469Zm836.172-44.246c-8.969,17.327-7.617,35.004,2.333,52.972,4.61,4.396,9.493,8.062,14.603,11.109-.322-6.732-.641-13.466-.962-20.199-8.325-12.978-14.064-27.38-15.974-43.882Zm-535.582-1.925c-5.711,15.468-14.171,27.496-25.009,36.551,7.403-11.787,13.446-24.117,14.428-38.475-4.159-3.995-8.182-2.094-12.024,7.695-6.491,24.178-17.339,44.395-30.884,62.16-3.207,10.581-6.412,21.162-9.62,31.743,5.193-2.242,10.28-4.863,15.264-7.878,33.337-26.007,48.492-56.815,47.846-91.796Zm-.586,45.807c-.319,6.733-.641,13.467-.961,20.199,5.111-3.047,9.99-6.713,14.604-11.109,9.949-17.969,11.301-35.645,2.332-52.972-1.91,16.502-7.649,30.905-15.974,43.882Z" fill="#998543"/><path d="m288.23,1142.979c33.856,6.742,68.479,8.504,103.752,6.068-3.615.202-7.223.385-10.827.547,57.533-6.699,111.233-17.343,160.405-32.646-16.309-3.522-30.848-7.93-43.214-13.422-51.961,18.205-117.418,36.597-210.117,39.454Zm187.495,65.279h-.002c-14.935,6.885-32.072,12.962-57.016,16.179,24.645-.328,48.315-2.302,70.415-6.91,12.107-3.185,24.067-6.691,35.879-10.528-16.426,2.886-32.85,3.826-49.277,1.26Zm-118.314,132.997h-.002c-18.325,14.513-40.511,28.198-77.02,38.797l-.771.702h.004c23.492-.861,47.781-5.604,72.264-13.307-1.945.498-3.89.984-5.838,1.457,25.469-8.33,50.527-18.309,75.066-30.363-22.197,3.105-43.748,4.739-63.702,2.714Zm32.716-101.404c-27.454-5.111-51.226-13.115-69.7-25.28-31.864,13.408-65.013,30.175-101.671,36.09l.068-.033c-38.786,13.96-80.761,22.892-130.668,19.319,35.118,9.082,72.998,12.943,113.871,11.157-7.668-.241-15.289-.63-22.866-1.177,74.295-3.71,144.409-17.575,210.966-40.078Zm503.13-153.624c-49.015-4.655-118.287-120.158-145.245-124.084-51.789-7.54-217.386,111.743-305.88,105.809,91.263,15.165,265.337-95.401,294.581-84.602,37.352,21.642,104.79,110.225,155.185,116.791,8.855,1.153,21.98-5.931,36.23-12.847,2.236-6.069,4.677-12.039,7.325-17.896-14.996,6.455-32.656,17.735-42.196,16.83Zm998.535,122.031h-.005c-16.424,2.566-32.85,1.626-49.275-1.26,11.811,3.837,23.77,7.344,35.878,10.528,22.102,4.609,45.771,6.582,70.416,6.91-24.942-3.217-42.081-9.293-57.014-16.179Zm33.588-140.306c-88.493,5.934-254.09-113.349-305.879-105.809-26.959,3.926-96.23,119.429-145.246,124.084-9.539.906-27.198-10.374-42.194-16.829,2.647,5.857,5.088,11.827,7.324,17.895,14.251,6.917,27.375,14,36.229,12.847,50.395-6.565,117.833-95.149,155.185-116.791,29.245-10.799,203.318,99.767,294.58,84.602Zm223.311,182.677l.064.033c-36.657-5.915-69.807-22.682-101.668-36.09-18.475,12.165-42.248,20.169-69.702,25.28,66.56,22.503,136.673,36.368,210.967,40.078-7.578.547-15.199.935-22.866,1.177,40.872,1.786,78.754-2.075,113.87-11.157-49.904,3.573-91.881-5.36-130.664-19.319Zm-138.588,90.626h-.002c-19.951,2.024-41.504.391-63.699-2.714,24.538,12.054,49.593,22.033,75.063,30.363-1.945-.472-3.893-.958-5.836-1.457,24.481,7.702,48.771,12.446,72.261,13.307h.005l-.771-.702c-36.509-10.599-58.694-24.284-77.021-38.797Zm-34.573-192.209c35.272,2.436,69.897.674,103.752-6.068-92.699-2.857-158.157-21.25-210.117-39.454-12.367,5.493-26.906,9.9-43.213,13.422,49.172,15.304,102.872,25.947,160.405,32.646-3.604-.162-7.211-.345-10.827-.547Z" fill="#d6d1c4"/><path d="m1183.758,1076.906c-57.741,0-104.549,46.808-104.549,104.549,0,5.66.457,11.214,1.323,16.63,8.899,30.974,26.799,52.954,36.236,47.364,2.439-1.448-14.953-23.379-14.953-63.994,0-45.256,36.688-81.944,81.944-81.944s81.942,36.688,81.942,81.944c0,47.322-17.45,62.515-14.953,63.994,9.437,5.591,27.339-16.392,36.239-47.371.866-5.414,1.319-10.966,1.319-16.623,0-57.741-46.807-104.549-104.547-104.549Zm0,30.78c-40.743,0-73.769,33.026-73.769,73.769s33.026,73.767,73.769,73.767,73.767-33.026,73.767-73.767-33.026-73.769-73.767-73.769Zm-67.905,77.553c-2.091,0-3.787-1.693-3.787-3.784s1.695-3.786,3.787-3.786,3.783,1.695,3.783,3.786-1.693,3.784-3.783,3.784Zm5.817-39.628c1.047-1.814,3.36-2.432,5.171-1.387,1.811,1.047,2.431,3.36,1.385,5.171-1.044,1.811-3.358,2.432-5.169,1.386-1.81-1.045-2.431-3.361-1.387-5.169Zm5.171,73.074c-1.811,1.047-4.124.426-5.169-1.385-1.047-1.811-.426-4.125,1.385-5.172,1.811-1.044,4.125-.426,5.172,1.387,1.044,1.809.424,4.122-1.387,5.169Zm26.241,23.471c-1.044,1.809-3.36,2.43-5.168,1.385-1.814-1.047-2.432-3.36-1.387-5.171,1.047-1.811,3.36-2.432,5.171-1.386,1.811,1.045,2.432,3.359,1.385,5.172Zm-1.385-116.23c-1.81,1.045-4.124.424-5.171-1.387-1.045-1.81-.426-4.124,1.385-5.169,1.81-1.047,4.127-.426,5.171,1.385,1.047,1.811.426,4.125-1.385,5.171Zm32.061,127.219c-2.091,0-3.786-1.694-3.786-3.784s1.695-3.787,3.786-3.787,3.784,1.695,3.784,3.787-1.693,3.784-3.784,3.784Zm0-135.811c-2.091,0-3.786-1.694-3.786-3.784s1.695-3.787,3.786-3.787,3.784,1.695,3.784,3.787-1.693,3.784-3.784,3.784Zm35.845,126.206c-1.811,1.045-4.127.424-5.172-1.385-1.044-1.813-.426-4.126,1.385-5.172,1.811-1.047,4.125-.426,5.171,1.386,1.044,1.81.426,4.124-1.385,5.171Zm1.385-119.002c-1.047,1.811-3.36,2.432-5.171,1.387-1.811-1.047-2.429-3.36-1.385-5.171,1.047-1.811,3.36-2.431,5.172-1.385,1.811,1.045,2.429,3.36,1.385,5.169Zm24.856,92.762c-1.047,1.811-3.36,2.431-5.171,1.385-1.81-1.047-2.431-3.36-1.385-5.172,1.045-1.81,3.359-2.429,5.171-1.385,1.809,1.045,2.43,3.36,1.385,5.172Zm-1.385-66.52c-1.813,1.047-4.126.426-5.174-1.386-1.044-1.81-.423-4.124,1.387-5.171,1.811-1.045,4.125-.426,5.171,1.385,1.045,1.81.424,4.127-1.385,5.171Zm7.205,34.459c-2.091,0-3.787-1.693-3.787-3.784s1.695-3.786,3.787-3.786,3.783,1.695,3.783,3.786-1.695,3.784-3.783,3.784Z" fill="#998543"/><circle cx="1183.758" cy="1181.455" r="62.225" fill="#212322"/><path d="m1183.758,1233.578c28.786,0,52.123-23.337,52.123-52.123s-23.337-52.125-52.123-52.125-52.125,23.337-52.125,52.125,23.337,52.123,52.125,52.123Z" fill="#998543" fill-rule="evenodd"/><path d="m1282.211,1158.713c-10.317-44.844-50.478-78.285-98.454-78.285s-88.139,33.441-98.456,78.285c14.164-38.043,52.892-65.351,98.456-65.351s84.291,27.308,98.454,65.351Zm-56.564,18.258c.135-1.308.204-2.635.204-3.979,0-22.176-18.847-40.154-42.094-40.154s-42.095,17.977-42.095,40.154c0,1.344.069,2.671.206,3.979,1.024-9.92,5.834-18.779,13.032-25.25-2.386,3.557-3.738,7.608-3.738,11.906,0,14.134,14.592,25.593,32.595,25.593s32.596-11.459,32.596-25.593c0-4.298-1.353-8.349-3.74-11.906,7.198,6.47,12.01,15.329,13.033,25.25Zm27.996,7.71c.799,2.767,1.439,5.604,1.906,8.496.618-3.816.948-7.733.948-11.723,0-40.173-32.568-72.738-72.739-72.738s-72.738,32.566-72.738,72.738c0,3.99.326,7.907.944,11.723.468-2.892,1.109-5.729,1.908-8.496-1.084-.665-1.806-1.862-1.806-3.226,0-2.091,1.695-3.786,3.787-3.786.146,0,.289.009.431.025,1.646-4.083,3.654-7.983,5.982-11.658,6.887-27.553,31.803-47.966,61.492-47.966s54.603,20.412,61.491,47.966c2.327,3.676,4.335,7.575,5.982,11.658.14-.016.284-.025.433-.025,2.091,0,3.783,1.695,3.783,3.786,0,1.364-.72,2.56-1.804,3.226Zm-125.417-35.287c-1.044,1.811-3.358,2.432-5.169,1.386-1.81-1.045-2.431-3.361-1.387-5.169,1.047-1.814,3.36-2.432,5.171-1.387,1.811,1.047,2.431,3.36,1.385,5.171Zm23.471-23.469c-1.81,1.045-4.124.424-5.171-1.387-1.045-1.81-.426-4.124,1.385-5.169,1.81-1.047,4.127-.426,5.171,1.385,1.047,1.811.426,4.125-1.385,5.171Zm32.061-8.591c-2.091,0-3.786-1.694-3.786-3.784s1.695-3.787,3.786-3.787,3.784,1.695,3.784,3.787-1.693,3.784-3.784,3.784Zm37.23,7.204c-1.047,1.811-3.36,2.432-5.171,1.387-1.811-1.047-2.429-3.36-1.385-5.171,1.047-1.811,3.36-2.431,5.172-1.385,1.811,1.045,2.429,3.36,1.385,5.169Zm23.471,26.241c-1.813,1.047-4.126.426-5.174-1.386-1.044-1.81-.423-4.124,1.387-5.171,1.811-1.045,4.125-.426,5.171,1.385,1.045,1.81.424,4.127-1.385,5.171Zm175.231-32.218c3.065,9.667,5.579,19.587,7.522,29.722,4.896-1.457,10.461-3.273,13.207-5.452-1.236-8.297-2.876-16.463-4.877-24.483-3.72-1.058-10.457-.372-15.853.213Zm11.642,62.041c4.514-.755,9.247-1.757,11.899-3.318-.141-8.826-.716-17.55-1.719-26.143-3.217-1.362-9.023-1.647-14.099-1.767,1.91,10.206,3.224,20.632,3.918,31.229Zm-472.174-91.46c-5.463-1.32-12.89-3.194-17.036-2.563-3.027,7.7-5.699,15.581-7.985,23.621,2.682,2.788,8.884,5.579,13.875,7.77,3.158-9.891,6.887-19.514,11.146-28.828Zm460.345,28.828c4.993-2.19,11.193-4.981,13.877-7.77-2.402-8.427-5.225-16.676-8.432-24.731-4.157-.612-11.598,1.308-17.051,2.649,4.453,9.634,8.332,19.601,11.607,29.851Zm-460.259-29.02c39.717-86.712,125.313-146.713,224.514-146.713s184.134,59.536,224.054,145.699c4.804-2.921,11.385-6.855,13.879-10.238-3.342-7.654-7.044-15.116-11.081-22.366-4.375-.058-11.885,3.019-17.154,5.053,4.414-3.541,10.82-8.507,12.953-12.323-4.497-7.501-9.361-14.76-14.576-21.739-4.344.533-11.366,4.573-16.313,7.283,3.893-4.083,9.56-9.836,11.188-13.9-5.206-6.523-10.72-12.79-16.521-18.779-4.24,1.102-10.666,5.994-15.21,9.308,3.335-4.544,8.212-10.968,9.309-15.209-6.274-6.077-12.845-11.843-19.703-17.267-4.057,1.642-9.789,7.36-13.862,11.253,2.705-4.956,6.698-11.989,7.212-16.334-6.688-4.947-13.62-9.578-20.778-13.874-3.817,2.137-8.782,8.557-12.327,12.95,2.051-5.273,5.118-12.778,5.055-17.151-7.594-4.231-15.419-8.094-23.457-11.561-3.506,2.613-7.582,9.655-10.519,14.491,1.338-5.517,3.388-13.398,2.728-17.712-7.7-3.027-15.582-5.699-23.621-7.988-3.143,3.034-6.29,10.554-8.585,15.732.618-5.634,1.639-13.694.44-17.894-8.404-2.096-16.968-3.787-25.674-5.044-2.698,3.441-4.815,11.255-6.382,16.686-.15-5.632-.202-13.726-1.926-17.749-8.207-.922-16.533-1.448-24.956-1.584-2.218,3.777-3.302,11.778-4.171,17.334-.857-5.569-1.948-13.559-4.171-17.334-8.828.144-17.552.721-26.146,1.721-1.712,4.028-1.732,12.112-1.841,17.758-1.607-5.409-3.754-13.238-6.468-16.667-8.297,1.239-16.463,2.877-24.483,4.88-1.199,4.203-.18,12.26.438,17.894-2.295-5.178-5.44-12.698-8.585-15.732-8.427,2.399-16.676,5.225-24.731,8.432-.64,4.322,1.447,12.186,2.809,17.693-2.958-4.819-7.065-11.84-10.581-14.439-7.657,3.344-15.116,7.047-22.366,11.084-.063,4.372,3.003,11.878,5.055,17.151-3.546-4.393-8.511-10.815-12.325-12.952-7.502,4.5-14.757,9.365-21.739,14.578.528,4.342,4.555,11.362,7.286,16.31-4.086-3.872-9.836-9.555-13.903-11.185-6.524,5.206-12.788,10.723-18.777,16.521,1.096,4.241,5.975,10.665,9.307,15.211-4.543-3.316-10.97-8.208-15.21-9.31-6.078,6.271-11.844,12.846-17.268,19.706,1.64,4.057,7.342,9.789,11.256,13.858-4.954-2.687-11.987-6.691-16.334-7.21-4.949,6.689-9.578,13.622-13.876,20.781,2.133,3.816,8.541,8.782,12.952,12.323-5.266-2.034-12.779-5.111-17.153-5.053-4.229,7.593-8.091,15.421-11.561,23.459,2.506,3.364,9.083,7.26,13.9,10.159Zm472.672,109.07c0,4.779-.129,9.529-.379,14.244,3.897-.212,7.72-.65,10.111-1.679.917-8.212,1.447-16.537,1.584-24.96-2.632-1.544-7.316-2.54-11.792-3.295.308,5.189.476,10.419.476,15.69Zm-36.713,133.933c3.953-5.545,7.691-11.248,11.204-17.103-.283-.507-.641-1.035-1.063-1.578-3.134,6.385-6.517,12.617-10.141,18.68Zm-211.445,77.099c-116.471,0-213.72-77-236.879-179.594,23.158,109.574,120.408,191.815,236.879,191.815s213.721-82.241,236.877-191.815c-23.159,102.594-120.408,179.594-236.877,179.594Zm234.89-128.312c-3.024,9.117-6.536,18.001-10.498,26.623.892.149,1.721.227,2.458.218,4.231-7.596,8.094-15.421,11.56-23.46-.81-1.088-2.051-2.235-3.52-3.381Zm1.449-4.528c2.015.257,3.851.338,5.294.118,3.027-7.7,5.699-15.579,7.985-23.621-1.382-1.431-3.696-2.865-6.294-4.217-1.834,9.439-4.173,18.689-6.985,27.72Zm-472.274-157.649c-5.398-.588-12.133-1.274-15.849-.216-2.096,8.402-3.787,16.964-5.044,25.669,2.749,2.156,8.282,3.94,13.168,5.368,1.964-10.519,4.553-20.805,7.725-30.821Zm479.9,126.491c3.022.144,5.845.072,7.816-.491,2.098-8.404,3.788-16.965,5.046-25.671-2.019-1.577-5.537-2.955-9.193-4.143-.646,10.28-1.881,20.394-3.668,30.305Zm-466.616,69.796c3.531,5.889,7.29,11.63,11.264,17.202-3.645-6.095-7.049-12.357-10.201-18.779-.419.542-.779,1.07-1.063,1.578Zm-21.216-164.353c-5.06.145-10.828.458-14.024,1.829-.921,8.21-1.448,16.535-1.584,24.958,2.652,1.561,7.386,2.564,11.899,3.321.667-10.213,1.913-20.261,3.71-30.108Zm-4.293,47.524c0-5.271.172-10.498.477-15.69-4.476.757-9.159,1.751-11.792,3.295.144,8.828.721,17.549,1.721,26.144,2.378,1.012,6.171,1.433,10.041,1.63-.294-5.087-.447-10.215-.447-15.379Zm10.225,87.191c3.344,7.656,7.047,15.117,11.084,22.369.738.009,1.565-.069,2.457-.218-3.798-8.261-7.176-16.767-10.113-25.486-1.429,1.135-2.633,2.262-3.427,3.335Zm-6.033-40.155c-1.723-9.539-2.927-19.264-3.59-29.142-3.629,1.199-7.109,2.587-9.106,4.166,1.239,8.296,2.877,16.461,4.88,24.483,1.973.563,4.794.637,7.816.493Zm.641,3.435c-2.599,1.352-4.912,2.786-6.295,4.217,2.4,8.427,5.225,16.676,8.432,24.731,1.418.211,3.217.125,5.19-.13-2.965-9.379-5.419-18.996-7.328-28.818Z" fill="#d6d1c4"/><path d="m1183.758,1226.586c24.944,0,45.166-15.546,45.166-34.722s-20.222,6.158-45.166,6.158-45.166-25.335-45.166-6.158,20.22,34.722,45.166,34.722Z" fill="#212322" fill-rule="evenodd"/><path d="m1400.866,1310.195c-42.187,76.477-123.592,128.289-217.108,128.289s-174.923-51.812-217.108-128.289c44.587,71.386,125.139,119.055,217.108,119.055s172.519-47.669,217.108-119.055Z" fill="#212322" fill-rule="evenodd"/><rect width="2367.496" height="2367.496" fill="none"/></g></svg>